<?xml version="1.0" encoding="utf-8"?>
<!-- Generator: Adobe Adobe Illustrator 24.2.0, SVG Export Plug-In . SVG Version: 6.00 Build 0)  -->
<svg version="1.1" id="Ebene_1" xmlns="http://www.w3.org/2000/svg" xmlns:xlink="http://www.w3.org/1999/xlink" x="0px" y="0px"
	 width="992.13px" height="992.13px" viewBox="0 0 992.13 992.13" style="enable-background:new 0 0 992.13 992.13;"
	 xml:space="preserve">
<style type="text/css">
	.st0{fill:#B00024;}
	.st1{fill:#F0ECE0;}
	.st2{fill:#021F37;}
	.st3{fill:#3D5300;}
	.st4{fill:#ABBA7C;}
	.st5{fill:#F09319;}
	.st6{fill:#FFE31A;}
	.st7{fill:none;}
	.st8{fill:none;stroke:#FFFFFF;stroke-width:18.788;stroke-linecap:round;stroke-miterlimit:10;}
	.st9{fill:none;stroke:#001630;stroke-width:18.788;stroke-linecap:round;stroke-linejoin:bevel;stroke-miterlimit:10;}
	.st10{fill:#F09319;stroke:#001630;stroke-width:5.0101;stroke-miterlimit:10;}
	.st11{fill:#FFFFFF;stroke:#001630;stroke-width:5.0101;stroke-miterlimit:10;}
	.st12{fill:#FEFEFD;}
	.st13{fill:#001630;}
	.st14{fill:none;stroke:#B00024;stroke-width:18.788;stroke-miterlimit:10;}
	.st15{fill:none;stroke:#001630;stroke-width:5.0101;stroke-miterlimit:10;}
	.st16{fill:none;stroke:#FFFFFF;stroke-width:13.7778;stroke-linecap:round;stroke-miterlimit:10;}
	.st17{fill:none;stroke:#FFFFFF;stroke-width:8.7677;stroke-linecap:round;stroke-miterlimit:10;}
	.st18{fill:#3D5300;stroke:#001630;stroke-width:18.788;stroke-linecap:round;stroke-miterlimit:10;}
	.st19{fill:none;stroke:#001630;stroke-width:18.788;stroke-linecap:round;stroke-miterlimit:10;}
	.st20{fill:none;stroke:#828F5D;stroke-width:18.788;stroke-linecap:round;stroke-miterlimit:10;}
	.st21{fill:#FFFFFF;stroke:#FFFFFF;stroke-width:1.2525;stroke-linecap:round;stroke-miterlimit:10;}
	.st22{fill:none;stroke:#3D5300;stroke-width:18.788;stroke-linecap:round;stroke-miterlimit:10;}
	.st23{fill:none;stroke:#828F5D;stroke-width:20.0405;stroke-linecap:round;stroke-miterlimit:10;}
	.st24{fill:none;stroke:#001630;stroke-width:18.788;stroke-linecap:round;stroke-linejoin:round;stroke-miterlimit:10;}
	.st25{fill:#E4E6E0;stroke:#001630;stroke-width:18.788;stroke-linecap:round;stroke-miterlimit:10;}
	.st26{fill-rule:evenodd;clip-rule:evenodd;fill:#FFFFFF;stroke:#FFFFFF;stroke-width:7.5152;stroke-miterlimit:22.9256;}
	.st27{fill-rule:evenodd;clip-rule:evenodd;fill:#001630;}
	.st28{fill-rule:evenodd;clip-rule:evenodd;fill:#FFFFFF;}
	.st29{fill-rule:evenodd;clip-rule:evenodd;fill:#FFE31A;}
	.st30{fill-rule:evenodd;clip-rule:evenodd;fill:#F09319;}
	.st31{fill:#B00024;stroke:#001630;stroke-width:5.0101;stroke-linecap:round;stroke-linejoin:round;stroke-miterlimit:10;}
	.st32{fill:#B00024;stroke:#001630;stroke-width:5.0101;stroke-linejoin:round;stroke-miterlimit:10;}
</style>
<g id="Kolben_1_">
	<g id="Kolben">
		<path class="st7" d="M858.18,625.48c0,0,84.48,76.41-26.84,148.43L686.2,843.5c-126.18,40.71-131.96-73.06-131.96-73.06
			l-0.26-2.03l2.45-275.9l-0.18-1.4l-53.59-113.3l-1.38-0.3l85.96-41.5l-0.64,1.26l53.89,113.16l0.97,1.03L856.77,624"/>
		<line class="st8" x1="484.17" y1="354.05" x2="541.21" y2="328.38"/>
		<line class="st9" x1="506.81" y1="374.53" x2="558.25" y2="488.83"/>
		<line class="st9" x1="550.75" y1="766.04" x2="558.4" y2="490.23"/>
		<path class="st9" d="M681.53,843.62c-126.93,38.32-130.56-75.54-130.56-75.54"/>
		<line class="st9" x1="827.95" y1="776.78" x2="681.53" y2="843.62"/>
		<path class="st9" d="M487.7,336.9c-20.09,6.67-18.81,46.51,17.74,37.31"/>
		<line class="st9" x1="592.18" y1="334.34" x2="505.44" y2="374.21"/>
		<line class="st9" x1="575.92" y1="296.36" x2="487.7" y2="336.9"/>
		<line class="st9" x1="591.52" y1="335.58" x2="643.26" y2="449.73"/>
		<line class="st9" x1="856.21" y1="627.37" x2="644.22" y2="450.78"/>
		<path class="st9" d="M827.95,776.78c112.66-69.9,29.64-147.89,29.64-147.89"/>
		<path class="st9" d="M575.92,296.36c18.28-10.66,47.33,16.64,16.26,37.98"/>
		<g>
			<g>
				<path class="st10" d="M830.58,637.76l-1.17-1.28l-54.6-42.55c-25.1,52.82-202-1.57-196.98,44.79l0.08,0.76l-4,117.85
					c0,0.03,0,0.06,0,0.09l0,0.04l0-0.01c-0.5,15.12,1.89,92.82,107.28,59.71l124.11-56.32
					C921.31,703.39,830.58,637.76,830.58,637.76z"/>
			</g>
		</g>
		<circle class="st11" cx="667.69" cy="742.08" r="7.25"/>
		<line class="st8" x1="606.78" y1="636.41" x2="604.92" y2="748.88"/>
		<circle class="st11" cx="759.93" cy="673.43" r="11.6"/>
		<path class="st8" d="M644.39,790.81c-32.3,7.53-38.9-17.47-38.9-17.47"/>
	</g>
	<g id="Gefahrenzeichen">
		<g>
			<path class="st12" d="M636.97,562.4c0.49-1.46,0.95-2.85,1.39-4.16c27.75,9.84,55.35,19.62,82.85,29.37
				c-9.73,27.47-19.5,55.04-29.22,82.47c-27.44-9.73-55.04-19.51-82.77-29.34C618.4,614.82,627.68,588.65,636.97,562.4z
				 M669.31,588.9c-0.61-3.23-1.08-6.56-2.73-9.42c-3.62-6.29-9.23-9.42-16.47-9.54c-2.51-0.04-4.8,0.82-6.83,2.23
				c-5.93,4.1-8.52,11.82-6.06,18.62c2.75,7.63,7.86,13.34,14.92,17.33c0.37,0.21,0.7,0.61,0.89,0.99c0.31,0.61,0.39,1.34,0.74,1.91
				c1.23,1.97,0.55,3.28-1.07,4.73c-2.43,2.17-4.61,4.61-6.93,6.98c0.8,0.76,1.6,1.03,2.58,0.59c0.17-0.08,0.4-0.11,0.57-0.07
				c1.3,0.29,2.61,0.87,3.89,0.83c1.14-0.04,2.29-0.12,3.44-0.1c0.18,0,0.38,0.01,0.53,0.1c1.74,1,2.9,0.58,3.56-1.33
				c0.14-0.01,0.33,0.02,0.47-0.05c1.29-0.66,2.48-0.59,3.65,0.32c0.12,0.09,0.81-0.31,1-0.62c0.24-0.38,0.24-0.92,0.33-1.39
				c0.06-0.33,0.16-0.68,0.13-1.01c-0.1-0.94-1.05-1.62-0.82-2.68c0.02-0.08-0.15-0.22-0.25-0.3c-0.71-0.5-0.71-1.46-0.5-1.91
				c0.63-1.34,0.27-2.28-0.5-2.99c-0.02-0.62,0.09-1.11-0.1-1.39c-0.13-0.19-0.68-0.09-1.05-0.11c-0.32-0.02-0.65-0.02-0.82-0.03
				c-0.28-0.69-0.52-1.27-0.75-1.87c-0.06-0.16-0.13-0.39-0.07-0.51c0.72-1.24,0.31-2.22-0.71-3.09c0.44-0.98,0.42-1.78-0.67-2.42
				c-0.5-0.29-0.66-0.94-0.11-1.55c1.76,1.71,3.47,3.37,5.24,5.09c-0.35,1.28-0.14,1.81,1.07,2.38c0.09,0.04,0.23,0.03,0.28,0.1
				c0.81,1.12,1.62,2.26,2.3,3.21c-0.39,0.5-0.67,0.86-0.95,1.22c0.35,0.22,0.76,0.39,1.04,0.68c0.44,0.44,1,0.92,1.13,1.47
				c0.26,1.06,0.68,1.91,1.61,2.5c0.14,0.09,0.22,0.31,0.27,0.49c0.22,0.75,0.67,1.19,1.48,1.14c0.88-0.05,1.21-0.59,1.35-1.4
				c0.1-0.58,0.37-0.99,1.15-0.91c0.39,0.04,0.99-0.3,1.21-0.65c0.32-0.52,0.01-1.02-0.54-1.35c-0.21-0.12-0.32-0.42-0.47-0.64
				c0.3-0.07,0.65-0.27,0.89-0.18c0.87,0.34,1.43-0.04,1.91-0.71c0.76,0.34,1.41,0.33,1.86-0.48c0.06-0.11,0.16-0.22,0.28-0.27
				c1.55-0.76,1.67-1.07,1.07-2.46c0.31-0.58,0.57-1.06,0.85-1.58c1.38,0.07,1.79-0.35,1.88-1.84c0.04-0.59,0.37-1.16,0.53-1.74
				c0.08-0.29,0.08-0.61,0.14-1.04c-4.72,0.63-9.27,1.23-13.81,1.83c-0.22-0.47-0.37-0.86-0.58-1.21c-1.2-1.91-1.64-3.82-1.08-6.17
				C670.43,595.48,669.82,592.24,669.31,588.9z M704.96,612.97c-0.99-2.11-2.03-4.2-2.96-6.33c-0.59-1.34-1.57-2.22-2.84-2.82
				c-1.61-0.75-3.31-1.06-5.1-0.82c-1.12,0.15-2.24,0.26-3.35,0.45c-0.93,0.16-2.19-0.17-2.35,1.35c0,0.04-0.13,0.06-0.17,0.11
				c-0.37,0.48-0.74,0.96-1.11,1.44c-1.63,0.58-2.11,1.23-1.97,3.17c-1.89,0.96-2.2,1.74-1.74,4.11c-0.47,0.42-0.86,0.93-1.37,1.2
				c-1.62,0.87-1.94,1.42-1.69,3.32c-1,0.53-1.11,1.34-0.56,2.29c-1.59,0.57-1.74,1.54-0.66,3.01c0.03,0.47,0.06,1.04,0.36,1.28
				c0.46,0.37,0.93,0.12,1.27-0.41c0.17-0.26,0.54-0.4,0.82-0.59c0.11,0.04,0.21,0.08,0.32,0.12c0.01,0.48-0.07,0.98,0.06,1.42
				c0.12,0.44,0.36,1,0.72,1.17c0.27,0.14,0.86-0.16,1.2-0.4c0.46-0.32,0.82-0.78,1.27-1.23c0.31,0.57,0.49,0.88,0.67,1.2
				c-0.47,0.5-0.8,1.06-0.07,1.54c0.7,0.46,1.11-0.02,1.42-0.65c1.19,0.82,2.26,0.59,3.2-0.38c1.22,0.9,1.87,0.86,2.93-0.18
				c1.19,1.29,1.64,1.36,3.2,0.67c0.67,0.4,1.16,0.87,1.7,0.96c0.84,0.13,1.08-0.62,1.35-1.28
				C701.29,622.15,703.11,617.65,704.96,612.97z M649.81,625.4c-0.71-0.9-1.61-1.08-2.66-0.69c-0.2,0.08-0.45,0.13-0.66,0.09
				c-0.87-0.15-1.68,0.58-2.58,0.13c-0.1-0.05-0.41,0.21-0.56,0.37c-1.55,1.63-3.16,3.21-4.62,4.92c-1.55,1.82-1.88,3.9-0.81,6.12
				c0.86,1.79,1.69,3.6,2.59,5.37c0.19,0.38,0.58,0.78,0.97,0.92c4.24,1.58,8.49,3.11,12.74,4.65c1.61,0.58,1.62,0.57,2.69-0.81
				c0.06-0.08,0.14-0.16,0.22-0.19c1.5-0.48,1.83-1.57,1.54-2.97c1.88-0.01,2.51-0.94,1.85-2.64c-0.25-0.64-0.05-0.98,0.66-1.12
				c0.93-0.18,1.45-1.12,0.9-1.73c-0.56-0.62-0.37-1.12-0.07-2.02c0.4,0.39,0.66,0.72,0.99,0.95c0.39,0.27,0.83,0.63,1.25,0.64
				c0.31,0,0.85-0.48,0.89-0.8c0.05-0.42-0.25-0.91-0.48-1.32c-0.09-0.16-0.42-0.19-0.61-0.27c-0.01-0.33,0.05-0.65-0.05-0.92
				c-0.29-0.86-0.24-1.24,0.82-0.82c0.24,0.09,0.89-0.27,0.97-0.53c0.08-0.28-0.22-0.91-0.49-1.01c-0.76-0.28-0.88-0.62-0.64-1.37
				c0.09-0.27-0.27-0.82-0.57-1.04c-0.6-0.44-1.41-0.64-1.93-1.14c-1.39-1.35-1.98-1.47-3.34-0.53c-0.54-0.23-0.98-0.41-1.43-0.6
				c-0.29-0.12-0.66-0.18-0.87-0.39c-0.88-0.91-1.91-1.07-2.93-0.35c-0.69,0.49-1.47,0.23-1.78-0.23
				C651.26,625.23,650.67,625.26,649.81,625.4z M681.01,639.7c-0.58-0.32-1.23-0.34-1.52,0.27c-0.2,0.42,0,1.03,0.05,1.55
				c0.01,0.18,0.16,0.35,0.14,0.52c-0.2,1.41,0.09,1.76,1.56,1.82c0.09,1.27,0.8,2.09,2.01,2.48c-0.84,1.93-0.54,2.92,0.86,3.84
				c0.31,1.06,0.57,1.79,0.72,2.55c0.3,1.42,1.59,2.44,1.57,4c0,0.24,0.34,0.49,0.64,0.89c0.22-0.5,0.36-0.8,0.49-1.11
				c0.92-2.28,1.84-4.57,2.76-6.86c2.51-6.26,5.03-12.51,7.51-18.78c0.18-0.44,0.23-1.11,0.02-1.49c-0.32-0.58-0.97-0.5-1.55-0.18
				c-0.12,0.07-0.34,0.08-0.44,0.02c-0.88-0.58-1.67-0.35-2.4,0.28c-1.13-1.24-1.59-1.34-3.09-0.78c-0.16,0.06-0.38,0.08-0.54,0.02
				c-1.37-0.55-1.8-0.3-2.09,1.19c-0.51,0.05-1.01,0.1-1.55,0.15c-1-1-1.01-0.99-2.76-0.77c-0.17,0.02-0.37-0.08-0.54-0.16
				c-0.94-0.45-1.4-0.25-1.89,0.67c-0.15,0.28-0.66,0.67-0.83,0.6c-0.73-0.29-1.45-0.32-1.84,0.32c-0.3,0.49-0.24,1.21-0.33,1.77
				c-0.3,0.42-0.79,0.85-0.89,1.36c-0.15,0.71,0.4,1.08,1.08,1.23c0.14,0.03,0.25,0.27,0.34,0.44c0.65,1.26,1.84,2.14,2.36,3.49
				c0.04,0.11,0.23,0.16,0.3,0.27c0.29,0.45,0.56,0.91,0.83,1.37c-0.09,0.05-0.18,0.1-0.26,0.15
				C681.53,640.46,681.34,640.13,681.01,639.7z M683.46,657.93c0.52,0.26,1.03,0.52,1.57,0.79c0.3-1.2-0.97-3.85-1.87-4.31
				c0.63-1.71,0.15-3.12-1.24-4.23c0.51-1.79,0.13-2.49-1.64-3.4c-0.27-0.61-0.82-1.1-0.98-1.69c-0.29-1.09-0.93-1.32-1.86-1.1
				c-0.23-0.48-0.43-0.91-0.64-1.34c0.73-1.21,0.58-1.71-0.62-2.3c-0.09-0.59,0.03-1.33-0.28-1.62c-0.91-0.85-1.51-1.82-1.94-2.97
				c-0.13-0.36-0.42-0.6-0.38-1.1c0.07-0.7-0.67-0.99-1.31-0.73c-0.95,0.39-1.93,0.81-2.94,0.92c-0.63,0.07-1.33-0.08-1.53,0.61
				c-0.15,0.5,0.08,1.12,0.14,1.68c-0.44,0.47-0.99,1.07-1.61,1.74c-1.21-0.05-1.53,0.19-1.99,1.52c-0.06,0.17-0.25,0.34-0.43,0.41
				c-1.37,0.55-1.64,1.07-1.29,2.53c-1.91,0.12-2.43,0.54-3.13,2.55c-0.09,0.02-0.19,0.06-0.29,0.07c-0.93,0.12-1.38,0.71-1.46,1.58
				c-0.08,0.88,0.48,1.23,1.24,1.49c1.66,0.55,3.29,1.18,4.93,1.78C670.39,653.17,676.86,655.53,683.46,657.93z M676.72,639.05
				c0.47,0.17,0.95,0.49,1.4,0.45c0.29-0.03,0.77-0.63,0.73-0.91c-0.06-0.45-0.47-0.85-0.76-1.26c-0.15-0.21-0.31-0.46-0.52-0.55
				c-0.36-0.16-0.77-0.2-1.15-0.29c-0.08,0.41-0.25,0.84-0.21,1.24C676.24,638.13,676.49,638.51,676.72,639.05z M672.66,621.16
				c0.08,0.18,0.13,0.49,0.26,0.53c0.77,0.26,1.55,0.6,2.34,0.62c0.64,0.01,1.11-0.57,0.93-1.3c-0.18-0.73-0.69-1.05-1.47-0.87
				c-0.34,0.08-0.73-0.01-1.03,0.12C673.32,620.43,673.01,620.75,672.66,621.16z M680.1,625.66c-1.28-0.38-1.93,0.2-1.68,1.46
				c0.05,0.24-0.14,0.53-0.06,0.74c0.14,0.39,0.4,0.74,0.61,1.11c0.35-0.25,0.74-0.47,1.04-0.77c0.15-0.15,0.08-0.52,0.23-0.69
				C680.75,626.91,680.71,626.34,680.1,625.66z M666.99,618.47c0.36,0.03,0.72,0.06,1.08,0.09c0.03-0.36,0.06-0.73,0.08-1.09
				c0.02-0.3,0.09-0.62,0.01-0.89c-0.13-0.41-0.31-1.02-0.61-1.12c-0.37-0.12-1.03,0.06-1.28,0.36c-0.2,0.23-0.04,0.85,0.07,1.26
				C666.46,617.51,666.72,617.91,666.99,618.47z M664.44,628.34c0.06,0.03,0.14,0.04,0.19,0.08c0.54,0.5,1.16,0.42,1.51-0.1
				c0.21-0.32,0.2-1.01-0.01-1.35c-0.36-0.57-0.98-0.5-1.53-0.1c-0.14,0.1-0.34,0.12-0.5,0.18c-0.34,0.14-0.73,0.23-1.01,0.45
				c-0.1,0.08-0.02,0.65,0.11,0.71C663.53,628.35,663.92,628.33,664.44,628.34z M661.44,623.78c-0.59,0.31-0.94,0.8-0.56,1.41
				c0.21,0.33,0.73,0.7,1.08,0.66c0.35-0.04,0.8-0.49,0.93-0.86C663.12,624.3,662.58,623.83,661.44,623.78z M671.74,630.61
				c-0.62,0.35-0.96,0.88-0.5,1.48c0.24,0.32,0.88,0.57,1.25,0.48c0.3-0.07,0.68-0.69,0.67-1.06
				C673.13,630.82,672.64,630.43,671.74,630.61z M666.84,633.34c-0.73-0.08-1.2,0.25-1.06,0.96c0.06,0.3,0.66,0.69,1.01,0.68
				C667.55,634.96,667.63,634.13,666.84,633.34z M668.28,620.44c-0.41-0.06-0.81-0.11-1.22-0.17c-0.04,0.31-0.21,0.69-0.09,0.91
				c0.12,0.22,0.7,0.47,0.78,0.39C668.02,621.31,668.16,620.91,668.28,620.44z"/>
			<path class="st13" d="M669.33,588.98c0.49,3.26,1.1,6.5,0.34,9.65c-0.56,2.35-0.12,4.25,1.08,6.17c0.22,0.35,0.36,0.74,0.58,1.21
				c4.54-0.6,9.08-1.21,13.81-1.83c-0.05,0.43-0.06,0.74-0.14,1.04c-0.16,0.59-0.49,1.15-0.53,1.74c-0.1,1.49-0.5,1.91-1.88,1.84
				c-0.28,0.53-0.54,1.01-0.85,1.58c0.6,1.39,0.48,1.7-1.07,2.46c-0.11,0.05-0.21,0.16-0.28,0.27c-0.45,0.8-1.1,0.82-1.86,0.48
				c-0.48,0.67-1.03,1.05-1.91,0.71c-0.24-0.09-0.59,0.11-0.89,0.18c0.15,0.22,0.26,0.52,0.47,0.64c0.56,0.33,0.86,0.83,0.54,1.35
				c-0.21,0.35-0.82,0.69-1.21,0.65c-0.79-0.08-1.06,0.33-1.15,0.91c-0.14,0.81-0.47,1.35-1.35,1.4c-0.81,0.04-1.26-0.4-1.48-1.14
				c-0.05-0.18-0.13-0.4-0.27-0.49c-0.94-0.59-1.35-1.44-1.61-2.5c-0.14-0.55-0.7-1.03-1.13-1.47c-0.28-0.29-0.69-0.45-1.04-0.68
				c0.28-0.36,0.56-0.72,0.95-1.22c-0.68-0.95-1.48-2.08-2.3-3.21c-0.05-0.06-0.19-0.06-0.28-0.1c-1.21-0.57-1.42-1.1-1.07-2.38
				c-1.77-1.72-3.48-3.38-5.24-5.09c-0.54,0.61-0.38,1.26,0.11,1.55c1.09,0.64,1.1,1.44,0.67,2.42c1.01,0.87,1.43,1.85,0.71,3.09
				c-0.07,0.12,0,0.35,0.07,0.51c0.22,0.59,0.47,1.18,0.75,1.87c0.17,0.01,0.49,0.01,0.82,0.03c0.36,0.02,0.92-0.07,1.05,0.11
				c0.19,0.28,0.07,0.77,0.1,1.39c0.76,0.71,1.13,1.65,0.5,2.99c-0.21,0.45-0.21,1.41,0.5,1.91c0.11,0.08,0.27,0.22,0.25,0.3
				c-0.24,1.06,0.72,1.74,0.82,2.68c0.04,0.33-0.06,0.67-0.13,1.01c-0.09,0.47-0.09,1-0.33,1.39c-0.19,0.31-0.88,0.71-1,0.62
				c-1.17-0.9-2.36-0.98-3.65-0.32c-0.13,0.07-0.32,0.03-0.47,0.05c-0.66,1.92-1.82,2.34-3.56,1.33c-0.15-0.08-0.35-0.09-0.53-0.1
				c-1.15-0.02-2.3,0.06-3.44,0.1c-1.29,0.04-2.59-0.54-3.89-0.83c-0.18-0.04-0.41-0.01-0.57,0.07c-0.98,0.44-1.78,0.16-2.58-0.59
				c2.32-2.36,4.5-4.81,6.93-6.98c1.62-1.44,2.3-2.76,1.07-4.73c-0.35-0.57-0.43-1.3-0.74-1.91c-0.2-0.39-0.52-0.78-0.89-0.99
				c-7.06-3.99-12.16-9.7-14.92-17.33c-2.45-6.8,0.13-14.52,6.06-18.62c2.03-1.4,4.32-2.27,6.83-2.23
				c7.24,0.13,12.85,3.25,16.47,9.54C668.23,582.34,668.71,585.66,669.33,588.98z"/>
			<path class="st13" d="M704.94,613.06c-1.83,4.59-3.65,9.1-5.45,13.61c-0.26,0.66-0.51,1.41-1.35,1.28
				c-0.54-0.09-1.03-0.56-1.7-0.96c-1.56,0.69-2.01,0.62-3.2-0.67c-1.06,1.04-1.71,1.09-2.93,0.18c-0.94,0.97-2.01,1.2-3.2,0.38
				c-0.31,0.63-0.72,1.12-1.42,0.65c-0.73-0.49-0.4-1.04,0.07-1.54c-0.18-0.32-0.35-0.64-0.67-1.2c-0.45,0.45-0.81,0.91-1.27,1.23
				c-0.35,0.24-0.93,0.54-1.2,0.4c-0.35-0.18-0.59-0.73-0.72-1.17c-0.12-0.44-0.05-0.94-0.06-1.42c-0.11-0.04-0.21-0.08-0.32-0.12
				c-0.28,0.19-0.65,0.33-0.82,0.59c-0.34,0.53-0.81,0.77-1.27,0.41c-0.3-0.24-0.33-0.81-0.36-1.28c-1.08-1.48-0.92-2.44,0.66-3.01
				c-0.55-0.95-0.44-1.75,0.56-2.29c-0.25-1.9,0.07-2.45,1.69-3.32c0.51-0.27,0.9-0.78,1.37-1.2c-0.46-2.37-0.14-3.15,1.74-4.11
				c-0.14-1.94,0.34-2.59,1.97-3.17c0.37-0.48,0.74-0.96,1.11-1.44c0.04-0.05,0.16-0.07,0.17-0.11c0.16-1.53,1.41-1.2,2.35-1.35
				c1.11-0.19,2.23-0.3,3.35-0.45c1.78-0.24,3.48,0.07,5.1,0.82c1.27,0.6,2.25,1.48,2.84,2.82
				C702.93,608.78,703.96,610.87,704.94,613.06z"/>
			<path class="st13" d="M649.86,625.47c0.81-0.21,1.4-0.24,1.96,0.61c0.3,0.46,1.09,0.71,1.78,0.23c1.03-0.72,2.06-0.56,2.93,0.35
				c0.2,0.21,0.57,0.26,0.87,0.39c0.44,0.19,0.89,0.37,1.43,0.6c1.36-0.94,1.94-0.82,3.34,0.53c0.52,0.5,1.33,0.7,1.93,1.14
				c0.3,0.22,0.66,0.77,0.57,1.04c-0.24,0.75-0.12,1.09,0.64,1.37c0.27,0.1,0.57,0.73,0.49,1.01c-0.08,0.27-0.73,0.63-0.97,0.53
				c-1.06-0.42-1.1-0.04-0.82,0.82c0.09,0.27,0.03,0.6,0.05,0.92c0.19,0.08,0.52,0.11,0.61,0.27c0.23,0.41,0.53,0.9,0.48,1.32
				c-0.04,0.32-0.58,0.8-0.89,0.8c-0.42,0-0.87-0.36-1.25-0.64c-0.33-0.23-0.59-0.56-0.99-0.95c-0.3,0.9-0.49,1.4,0.07,2.02
				c0.55,0.61,0.03,1.55-0.9,1.73c-0.7,0.14-0.91,0.47-0.66,1.12c0.66,1.7,0.03,2.63-1.85,2.64c0.28,1.4-0.05,2.5-1.54,2.97
				c-0.09,0.03-0.16,0.11-0.22,0.19c-1.08,1.38-1.08,1.39-2.69,0.81c-4.25-1.54-8.51-3.07-12.74-4.65
				c-0.39-0.14-0.77-0.54-0.97-0.92c-0.9-1.77-1.72-3.58-2.59-5.37c-1.07-2.22-0.74-4.3,0.81-6.12c1.46-1.71,3.07-3.29,4.62-4.92
				c0.16-0.17,0.46-0.42,0.56-0.37c0.9,0.45,1.71-0.27,2.58-0.13c0.21,0.04,0.45-0.02,0.66-0.09
				C648.2,624.32,649.09,624.5,649.86,625.47z"/>
			<path class="st13" d="M681.08,639.75c0.26,0.38,0.46,0.7,0.65,1.03c0.09-0.05,0.18-0.1,0.26-0.15c-0.28-0.46-0.54-0.92-0.83-1.37
				c-0.07-0.11-0.25-0.16-0.3-0.27c-0.52-1.34-1.71-2.23-2.36-3.49c-0.08-0.16-0.2-0.4-0.34-0.44c-0.68-0.15-1.24-0.52-1.08-1.23
				c0.11-0.51,0.6-0.93,0.89-1.36c0.09-0.56,0.03-1.28,0.33-1.77c0.39-0.65,1.11-0.61,1.84-0.32c0.18,0.07,0.68-0.31,0.83-0.6
				c0.49-0.92,0.95-1.11,1.89-0.67c0.17,0.08,0.37,0.18,0.54,0.16c1.74-0.22,1.75-0.22,2.76,0.77c0.54-0.05,1.03-0.1,1.55-0.15
				c0.29-1.5,0.73-1.75,2.09-1.19c0.15,0.06,0.38,0.04,0.54-0.02c1.5-0.56,1.96-0.46,3.09,0.78c0.72-0.63,1.51-0.86,2.4-0.28
				c0.1,0.07,0.33,0.05,0.44-0.02c0.58-0.32,1.22-0.4,1.55,0.18c0.21,0.38,0.16,1.05-0.02,1.49c-2.48,6.27-5,12.52-7.51,18.78
				c-0.92,2.29-1.84,4.57-2.76,6.86c-0.12,0.31-0.27,0.61-0.49,1.11c-0.3-0.4-0.64-0.64-0.64-0.89c0.02-1.56-1.28-2.57-1.57-4
				c-0.16-0.75-0.42-1.49-0.72-2.55c-1.4-0.91-1.7-1.91-0.86-3.84c-1.21-0.38-1.91-1.21-2.01-2.48c-1.48-0.07-1.76-0.42-1.56-1.82
				c0.02-0.16-0.12-0.34-0.14-0.52c-0.04-0.52-0.24-1.13-0.05-1.55C679.78,639.36,680.43,639.37,681.08,639.75z"/>
			<path class="st13" d="M683.39,657.91c-6.53-2.38-13-4.73-19.46-7.09c-1.64-0.6-3.27-1.23-4.93-1.78
				c-0.76-0.25-1.32-0.61-1.24-1.49c0.08-0.87,0.53-1.46,1.46-1.58c0.1-0.01,0.2-0.05,0.29-0.07c0.71-2.01,1.22-2.43,3.13-2.55
				c-0.35-1.46-0.07-1.98,1.29-2.53c0.17-0.07,0.37-0.24,0.43-0.41c0.46-1.33,0.78-1.57,1.99-1.52c0.62-0.67,1.17-1.26,1.61-1.74
				c-0.06-0.57-0.29-1.18-0.14-1.68c0.21-0.69,0.9-0.54,1.53-0.61c1-0.11,1.99-0.53,2.94-0.92c0.64-0.26,1.38,0.03,1.31,0.73
				c-0.05,0.5,0.24,0.74,0.38,1.1c0.43,1.15,1.03,2.12,1.94,2.97c0.31,0.29,0.19,1.03,0.28,1.62c1.2,0.59,1.35,1.09,0.62,2.3
				c0.21,0.43,0.41,0.86,0.64,1.34c0.93-0.23,1.57,0,1.86,1.1c0.16,0.59,0.71,1.08,0.98,1.69c1.77,0.91,2.14,1.61,1.64,3.4
				c1.39,1.11,1.87,2.52,1.24,4.23c0.9,0.46,2.17,3.11,1.87,4.31C684.49,658.45,683.98,658.19,683.39,657.91z"/>
			<path class="st13" d="M676.68,638.98c-0.19-0.47-0.44-0.85-0.47-1.25c-0.04-0.4,0.13-0.83,0.21-1.24
				c0.39,0.09,0.79,0.14,1.15,0.29c0.21,0.09,0.37,0.34,0.52,0.55c0.29,0.41,0.7,0.81,0.76,1.26c0.04,0.29-0.44,0.88-0.73,0.91
				C677.67,639.54,677.18,639.22,676.68,638.98z"/>
			<path class="st13" d="M672.67,621.08c0.34-0.33,0.65-0.65,1.03-0.82c0.3-0.13,0.69-0.05,1.03-0.12c0.79-0.18,1.3,0.15,1.47,0.87
				c0.18,0.73-0.29,1.31-0.93,1.3c-0.79-0.02-1.57-0.36-2.34-0.62C672.79,621.65,672.75,621.35,672.67,621.08z"/>
			<path class="st13" d="M680.17,625.71c0.54,0.63,0.58,1.2,0.07,1.8c-0.15,0.17-0.08,0.54-0.23,0.69c-0.3,0.3-0.69,0.52-1.04,0.77
				c-0.21-0.37-0.47-0.72-0.61-1.11c-0.08-0.21,0.11-0.51,0.06-0.74C678.17,625.86,678.82,625.28,680.17,625.71z"/>
			<path class="st13" d="M666.95,618.4c-0.24-0.49-0.49-0.88-0.61-1.32c-0.11-0.41-0.27-1.03-0.07-1.26
				c0.25-0.29,0.92-0.48,1.28-0.36c0.3,0.1,0.47,0.71,0.61,1.12c0.09,0.27,0.01,0.59-0.01,0.89c-0.02,0.36-0.05,0.73-0.08,1.09
				C667.71,618.53,667.35,618.5,666.95,618.4z"/>
			<path class="st13" d="M664.36,628.36c-0.44-0.03-0.83,0-1.15-0.14c-0.13-0.06-0.21-0.62-0.11-0.71c0.28-0.22,0.66-0.31,1.01-0.45
				c0.17-0.07,0.36-0.08,0.5-0.18c0.55-0.41,1.16-0.48,1.53,0.1c0.21,0.33,0.22,1.03,0.01,1.35c-0.35,0.52-0.97,0.6-1.51,0.1
				C664.58,628.37,664.51,628.36,664.36,628.36z"/>
			<path class="st13" d="M661.52,623.75c1.06,0.08,1.6,0.55,1.36,1.23c-0.13,0.37-0.58,0.83-0.93,0.86
				c-0.34,0.04-0.87-0.33-1.08-0.66C660.5,624.58,660.85,624.09,661.52,623.75z"/>
			<path class="st13" d="M671.81,630.59c0.83-0.16,1.32,0.23,1.34,0.92c0.01,0.37-0.36,0.99-0.67,1.06c-0.37,0.09-1-0.16-1.25-0.48
				C670.78,631.49,671.12,630.95,671.81,630.59z"/>
			<path class="st13" d="M666.91,633.37c0.72,0.77,0.64,1.6-0.12,1.62c-0.35,0.01-0.95-0.39-1.01-0.68
				C665.64,633.59,666.12,633.25,666.91,633.37z"/>
			<path class="st13" d="M668.31,620.5c-0.15,0.41-0.29,0.8-0.56,1.06c-0.08,0.08-0.66-0.17-0.78-0.39
				c-0.12-0.22,0.05-0.6,0.09-0.91C667.47,620.32,667.88,620.38,668.31,620.5z"/>
		</g>
		
			<rect x="615.67" y="564.62" transform="matrix(0.9426 0.334 -0.334 0.9426 243.348 -186.9202)" class="st14" width="99.05" height="99.05"/>
		
			<rect x="606.8" y="555.74" transform="matrix(0.9426 0.334 -0.334 0.9426 243.348 -186.9202)" class="st15" width="116.81" height="116.81"/>
	</g>
</g>
<g id="Blasen">
	<g>
		<circle class="st10" cx="570.74" cy="226.09" r="40.83"/>
		<path class="st16" d="M549.02,239.39c-1.53-33.13,24.25-35.08,24.25-35.08"/>
	</g>
	<circle class="st10" cx="661.22" cy="511.3" r="5.08"/>
	<circle class="st10" cx="571.27" cy="401.56" r="10.15"/>
	<g>
		<circle class="st10" cx="597.33" cy="464.74" r="26.11"/>
		<path class="st17" d="M586.39,468.26c0.57-15.35,12.54-15.25,12.54-15.25"/>
	</g>
	<g>
		<circle class="st10" cx="678.01" cy="160.13" r="26.63"/>
		<path class="st16" d="M671.55,164.3c-0.46-10.06,7.36-10.65,7.36-10.65"/>
	</g>
</g>
<g id="Flasche_1_">
	<g id="FLasche">
		<g id="Flasche">
			<path class="st18" d="M389.07,207.42l-82.33,155.75l-0.41,1c-14.37,16.48-47.66,19.19-62.04,55.11L113.26,746.57l0.02,0.01
				c-10.74,26.83-18.87,42.66,8.6,53.41l-0.02-0.01l137.81,55.17c27.29,11.17,32.34-5.89,43.08-32.72l131.03-327.29
				c14.38-35.92-7.84-60.85-6.87-82.7L475.2,241.9"/>
			<line class="st8" x1="127.18" y1="750.09" x2="256.62" y2="424"/>
			<path class="st8" d="M256.5,424.29c14.38-35.92,47.67-38.63,62.04-55.11"/>
			<line class="st19" x1="448.96" y1="231.98" x2="403.26" y2="404.59"/>
			<path class="st19" d="M410.12,487.28c14.38-35.92-7.84-60.85-6.87-82.7"/>
			<line class="st8" x1="401.9" y1="212.68" x2="318.54" y2="369.18"/>
			<line class="st20" x1="462.98" y1="236.9" x2="415.15" y2="407.62"/>
			<path class="st4" d="M341.19,298.13L327.9,323.3c14.95,66.45,45.41,83.01,111.69,44.34l7.66-27.05
				C432.7,275.4,397.86,260.35,341.19,298.13z"/>
			<line class="st20" x1="474.27" y1="231.41" x2="476" y2="202.13"/>
			<polyline class="st3" points="398.67,171.25 463.27,197.76 459.91,235.66 390.53,207.72 390.96,207.37 412.75,177.03 			"/>
			<line class="st8" x1="401.9" y1="212.68" x2="418.96" y2="181.2"/>
			<line class="st20" x1="290.04" y1="814.5" x2="421.48" y2="491.61"/>
			<path class="st20" d="M421.48,491.61c14.38-35.92-7.84-60.85-6.87-82.7"/>
			<path class="st8" d="M130.03,743.13c-16.52,40.28-16.01,38.21-1.03,44.36"/>
			<polygon class="st21" points="150.32,785.96 129.82,796.98 161.11,809.38 			"/>
			<polygon class="st21" points="131.52,795.95 149.7,785.82 122.77,774.77 			"/>
			<line class="st22" x1="120.52" y1="780.59" x2="259.7" y2="839.31"/>
			<path class="st22" d="M290.72,814.77c-11.13,27.15-7.74,34.08-29.2,25.28"/>
			<line class="st23" x1="328.16" y1="720.61" x2="280.36" y2="836.94"/>
			<line class="st19" x1="131.84" y1="774.51" x2="269.41" y2="829.22"/>
			<line class="st19" x1="273.79" y1="819.01" x2="410.77" y2="485.71"/>
			<path id="Farbe_Etikett" class="st4" d="M394.45,593.35c-25.98-109.07-94.24-136.33-189.48-75.86L158.09,634.6
				c27.2,109.49,95.41,136.87,189.48,75.86l46.78-115.31"/>
			<path id="Rand_Etikett_oben" class="st19" d="M341.19,298.13L327.9,323.3c14.95,66.45,45.41,83.01,111.69,44.34l7.66-27.05
				C432.7,275.4,397.86,260.35,341.19,298.13z"/>
			<g id="Rand_Flaschenkopf">
				<line class="st19" x1="479.31" y1="243.59" x2="383.03" y2="204.11"/>
				<path class="st19" d="M475.2,241.9c8.38,3.35,11.33,3.13,12.06-5.16"/>
				<line class="st19" x1="487.26" y1="236.74" x2="488.99" y2="207.45"/>
				<path class="st19" d="M388.98,208.44c-8.38-3.35-11.14-5.87-5.94-12.37"/>
				<line class="st19" x1="383.9" y1="195.36" x2="402.86" y2="172.97"/>
				<polyline class="st24" points="398.67,171.25 463.27,197.76 459.91,235.66 390.53,207.72 390.96,207.37 412.75,177.03 				"/>
				<path class="st25" d="M403.64,173.28c-12.45-4.87-9.51-23.79-1.72-20.67l-0.78-0.31l103.35,41.38
					c7.79,3.12-3.14,18.84-15.51,13.78l-86.13-34.48"/>
			</g>
			<path id="Rand_Etikett" class="st19" d="M394.45,593.35c-25.98-109.07-94.24-136.33-189.48-75.86L158.09,634.6
				c27.2,109.49,95.41,136.87,189.48,75.86l46.78-115.31"/>
			<path id="Rand_Flasche" class="st19" d="M389.07,207.42l-82.33,155.75l-0.41,1c-14.37,16.48-47.66,19.19-62.04,55.11
				L113.26,746.57l0.02,0.01c-10.74,26.83-18.87,42.66,8.6,53.41l-0.02-0.01l137.81,55.17c27.29,11.17,32.34-5.89,43.08-32.72
				l131.03-327.29c14.38-35.92-7.84-60.85-6.87-82.7L475.2,241.9"/>
		</g>
		<g id="Erdreich_Logo">
			<g id="Schattierung">
				<path class="st26" d="M175.3,640.96c0.89-1.5,5.74-14.62,6.81-16.15c22.47,0.36,40.65,7.82,54.53,22.34l-2.27,3.15l26.44,14.4
					c7.19,3.64,8.85,7.56,9.35,10.32l2.69,26.22L175.3,640.96z"/>
				<path class="st26" d="M241.01,645.63l-4.54,1.78c-9.67-3.97-27.62-11.33-54.53-22.36c0.5-0.71,1.03-1.44,1.58-2.16l-0.25-9.08
					c0.49-2.27,2.73-2.48,6.73-0.59c20.09-46.14,45.57-60.26,66.89-44.84c2.9-0.44,4.84-1.13,7.79-3.44
					c2.6-5.06,6.07-9.14,10.43-12.23c19.02-12.25,40.78,7.89,29.5,24.43l2.48,11.82c-1.16,2.22-8.28,1.1-11.33-2.53
					c-1.49,2.15-3.02,3.68-4.61,4.6c-0.79,0.64-2.13,1.26-4.02,1.89c-1.36,1.58-2.84,2.64-4.49,3.2c-4.54,6.38-8.04,2.61-12.64-2.9
					l-0.92,0.67l14.49,21.47l13.4,2.27l8.73,5.23c-9.65,9.6-8.1,13.44-38.49-0.95l-4.83,5.15l0.87,4.52
					c7.95,7.3,12.46,14.73,28.94,25.66c3.3-1.22,6.38-1.88,10.71-0.61l11.99,7.41l-12.01,21.02c-2.45,0.52-5.52-0.61-8.64-2.35
					c-3.97-4.81-6.35-7.52-9.35-12.56c-17.65-7.95-31.99-16.65-37.66-19.86C244.55,648.88,244.2,649.79,241.01,645.63z"/>
				<path class="st26" d="M352.7,586.87c-6.23-24.51-23.31-52.52-55.4-72.58c-19.76-8.1-55,15.78-54.66,37.31
					c7.06,23,22.84,44.16,47.33,71.64C306.91,644.76,357.72,610.3,352.7,586.87z"/>
				<polygon class="st26" points="351.74,586.27 352.29,572.66 348.04,557.21 335.62,547.79 328.16,549.46 339.62,575.46 				"/>
				<path class="st26" d="M315.47,618.73l8.49,9.91c1.15,4.03-4.67,7.67-7.78,5.51l-8.48-10.19
					C306.75,621.58,312.17,615.39,315.47,618.73z"/>
				<path class="st26" d="M321.61,630.69c7.72,8.02,11.27,14.06,11.28,23.77c4.63-0.11,8.45,2.76,9.5,8.06
					c6.1,4.05,2.77,9.42,1.72,16.48c-0.51,3.35-2.62,5.58-6.35,6.71c1.63,5.63-1.39,8.85-8.99,9.68l-4.94,0.21l-8.12-35.32
					c8.92-7.62,7.31-13.28,2.01-27.3L321.61,630.69z"/>
				<path class="st26" d="M313.39,658.51c-3.94-0.86-6.62-0.69-8.05,0.55l-9.97,20.83c0.01,2.73,1.21,4.87,3.6,6.42l-2.73,5.89
					c-2.04,2.11-3.17,5.02-2.14,6.65c5.52,5.82,19.52,11.5,26.66,10.62c1.97-0.78,2.99-2.5,3.09-5.14l13.12-28.88
					c2.36-1.12,3.38-5.44,1.74-8.16c-5.21-4.13-12.73-7.48-22.54-10.04C314.33,657.08,313.41,657.49,313.39,658.51z"/>
			</g>
			<path class="st27" d="M321.85,630.88c7.74,8.04,11.3,14.1,11.31,23.84c4.64-0.11,8.48,2.76,9.53,8.08
				c6.12,4.06,2.78,9.45,1.72,16.53c-0.52,3.36-2.63,5.59-6.37,6.73c1.63,5.64-1.39,8.87-9.02,9.71l-4.96,0.21l-8.14-35.42
				c8.95-7.64,7.33-13.32,2.01-27.38L321.85,630.88z"/>
			<path class="st27" d="M353.02,586.94c-6.25-24.57-23.37-52.67-55.56-72.79c-19.81-8.12-55.15,15.83-54.81,37.41
				c7.08,23.07,22.91,44.29,47.47,71.84C307.1,645,358.06,610.43,353.02,586.94z"/>
			<path class="st27" d="M241.01,645.87l-4.55,1.79c-9.7-3.98-27.7-11.36-54.68-22.42c0.5-0.72,1.03-1.44,1.58-2.16l-0.25-9.11
				c0.49-2.27,2.74-2.49,6.75-0.59c20.15-46.28,45.7-60.43,67.08-44.97c2.91-0.44,4.85-1.14,7.81-3.45
				c2.61-5.08,6.09-9.17,10.46-12.27c19.07-12.28,40.9,7.91,29.58,24.5l2.49,11.86c-1.17,2.23-8.3,1.11-11.36-2.54
				c-1.49,2.16-3.02,3.69-4.62,4.61c-0.79,0.64-2.13,1.27-4.03,1.89c-1.36,1.58-2.85,2.65-4.51,3.21c-4.55,6.4-8.06,2.61-12.68-2.91
				l-0.93,0.67l14.53,21.53l13.44,2.28l8.76,5.25c-9.68,9.63-8.13,13.48-38.6-0.95l-4.85,5.17l0.87,4.53
				c7.97,7.32,12.49,14.77,29.03,25.73c3.31-1.22,6.4-1.89,10.74-0.61l12.02,7.43l-12.04,21.08c-2.46,0.52-5.54-0.61-8.67-2.36
				c-3.98-4.82-6.37-7.54-9.38-12.6c-17.7-7.97-32.08-16.7-37.77-19.91C244.57,649.13,244.22,650.04,241.01,645.87z"/>
			<polygon class="st27" points="352.09,587.2 352.65,573.56 348.39,558.06 335.93,548.61 328.45,550.29 339.94,576.36 			"/>
			<path class="st27" d="M313.59,658.79c-3.95-0.86-6.64-0.69-8.07,0.55l-9.99,20.89c0.01,2.73,1.21,4.88,3.61,6.43l-2.74,5.91
				c-2.04,2.12-3.18,5.03-2.15,6.67c5.54,5.84,19.57,11.53,26.73,10.65c1.98-0.78,3-2.51,3.1-5.15l13.15-28.96
				c2.37-1.13,3.39-5.45,1.74-8.18c-5.23-4.14-12.77-7.5-22.61-10.07C314.54,657.35,313.61,657.77,313.59,658.79z"/>
			<path class="st28" d="M292.43,583.63c-5.24-2.99-8.81-7.68-10.75-14.1c-1.52-1.11-2.87,0.14-3.16,0.85
				c-0.97-0.08-2.09-0.12-3.69,0.86l-1.46-2.89c1.03-11.62-8.72-0.85-6.86,4.4c-1.65-0.01-2.06-1.79-1.18-5.31l-6.99,3.74
				c-2.18,5.15-1.7,8.35,2.45,18.08l3.03-2.43c-0.15-4.03,1.44-7.82,4.8-11.4c-1.5,4.32-1.77,7.44-0.8,9.37
				c5.05,10.45,10.01,16.07,13.69,10.17l7.13-5.36L292.43,583.63z"/>
			<path class="st28" d="M248.28,566.74c-21.38-5.13-39.71,10.77-54.94,47.71c13.89,2.46,23.7,2.02,29.43-1.36
				c-4.42-5.76-4.7-16.32-0.81-31.7c0.94,12.39,1.46,18.04,5.35,27.54c6.31-8.37,16.08-10.72,26.12-5.55
				c2.71-9.02-0.96-17.92-11.03-26.68c3.82-0.55,7.6,1.42,11.38,5.92C254.35,576.83,252.53,571.55,248.28,566.74z"/>
			<path class="st28" d="M256.54,607c-17.35-10.3-30.55,1.99-28.48,11.47c3.23-5.41,6.73-7.61,10.51-6.58
				c-4.12,2.42-6.4,6.96-6.88,13.65c6.26-9.44,15.44-11.82,27.61-7.15c-0.24-3.5-3.3-6.24-9.16-8.22c3.78-0.51,6.78,0.62,9.04,3.35
				C260.04,611.92,259.16,609.75,256.54,607z"/>
			<path class="st28" d="M256.94,620.45l0.99,8.17c-3.34-0.95-5.62-1.34-6.85-1.19c13.72,6.72,17.66,19.22,40.85,32.15
				c4.52-1.9,8.33-2.15,11.47-0.75l6.17,3.89l5.28,1.75c0.65,1.42-0.01,2.79-1.96,4.11l-4.04,0.53l-0.62,0.54l3.01,0.29
				c0.74,1.37,0.24,2.7-1.5,4.02l-3.05,0.37c-1.01,0.32-1.21,0.7-0.61,1.18l2.91,0.06c0.45,1.05-0.27,2.45-1.93,3.64l-3.08-0.02
				c-0.53,0.22-0.72,0.52-0.27,0.87l2.82,0.09c0.31,1.18-0.54,2.65-2.32,3.41c-2.28,0.34-4.61-0.13-6.96-1.39
				c-3.47-2.68-7.83-10.12-10.74-13.78l-39.35-21.44c-5.27-5.22-9.57-12.02-12.88-20.39C240.2,618.55,247.74,616.53,256.94,620.45z"
				/>
			<path class="st29" d="M288.9,567.98c-3.53-3.03-8.99-9.75-10.4-15.14c6.76-5.61,17.33-1.91,17.32-0.84
				C295.8,553.16,298.26,560.71,288.9,567.98z"/>
			<path class="st30" d="M317.42,597.51c13.94-8.66,28.06-11.07,31.53-5.41c3.5,5.65-5,17.26-18.91,25.9
				c-13.94,8.66-28.06,11.07-31.53,5.41C295.02,617.74,303.51,606.16,317.42,597.51z"/>
			<path class="st27" d="M290.82,581.9c-3.3,0.01-5.41-0.58-6.33-1.8l0.25-4.45L290.82,581.9z"/>
			<path class="st27" d="M288.69,589.84c-1.13,0-1.69-0.48-1.68-1.42c-0.68-1.12-1.76-1.96-3.2-2.49c-0.9,0.66,2.32,2.57,1.01,3.22
				l-0.3,0.95l1.84,0.06c0.28,0.18,0.68,0.34,1.17,0.48L288.69,589.84z"/>
			<polygon class="st27" points="279.86,589.16 283.48,590.64 283.48,591.33 284.65,591.6 283.98,593.26 283.57,592.29 
				282.28,591.01 			"/>
			<path class="st27" d="M282.61,594.08c-3.22,0.95-4.18,0.26-2.88-2.02C281.36,592.83,282.32,593.5,282.61,594.08z"/>
			<path class="st28" d="M315.96,658.91c-5.06,3.09,26.52,16.12,22.77,10.59c-0.49-0.56-1.37-1.06-2.52-1.58
				c-2.67,4.32-5.66-0.18-6.1-2.23C325.87,664.22,320.7,662.24,315.96,658.91z"/>
			<path class="st28" d="M317.62,668.26c2.75,0.86,4.04,1.93,3.85,3.26l-10.49,23.19c1.69,1.2,7.55-9.87,12.26-23.26
				C323.59,668.17,320.05,666.37,317.62,668.26z"/>
			<path class="st28" d="M326.31,672.77c2.75,0.86,4.03,1.95,3.84,3.27l-10.49,23.19c1.71,1.2,7.56-9.89,12.26-23.26
				C332.28,672.68,328.74,670.87,326.31,672.77z"/>
			<path class="st28" d="M298.55,693.73c3.13,4.75,11.03,8.09,23.69,10.07C312.41,700.82,304.51,697.47,298.55,693.73z"/>
			<path class="st30" d="M325.52,660.21c5.59-4.53,10.4-3.62,14.44,2.71C335.9,665.24,330.91,657.76,325.52,660.21z"/>
			<path class="st30" d="M337.76,666.74c9.1,1.65,5.66,18.12-5.76,16.86C331.12,678.84,349.04,677.2,337.76,666.74z"/>
			<path class="st28" d="M244.14,691.4c-10.16-2.63-19.03,2.61-27.17,7.73c-1.49,0.94-3.02,1.92-3.89,3.67
				c-0.87,1.74-0.88,4.48,0.48,6.38c0.86,1.2,2.26,2.18,2.36,3.62c0.06,0.94-0.5,1.6-0.61,2.48c-0.23,1.94,1.64,3.76,3.2,4.9
				c2.84,2.07,1.31,4.58,4.43,5.58c6.78,2.16,12.05,0.98,21.87-0.6c4.01-0.65,7.86-3.83,11.49-5.5c2.11-0.98,5.04-2.15,7.15-3.12
				c4-1.85,10.85-6.92,13.43-10.95c3.74-5.85-1.54-15.17-2.98-23.63"/>
			<path class="st30" d="M336.38,684.85c0.56,6.42-1.55,8.85-6.37,7.29C329.12,688.07,334.57,688.9,336.38,684.85z"/>
			<path class="st27" d="M163.82,656.89c-0.15-1.74,16.47-31.05,18.13-31.9c20.06-10.26,53.31,2.3,54.69,22.4
				c0.07,0.97-2.4,2.19-2.28,3.16c0.94,7.49,19.47,11.73,26.52,14.44c7.54,2.9,8.98,7.57,9.37,10.35c0.93,6.54,8.3,22.8,2.7,26.3
				C217.94,735.92,168.63,714.33,163.82,656.89z"/>
			<path class="st27" d="M243.44,721.85c-1.33,0.5-31.14,4.07-32.46,3.87c-15.97-2.37-18.86-14.16-3.37-19.86
				c0.75-0.28,2.68,0.03,3.4-0.26c5.6-2.23,1.79-8.07,1.22-10.58c-0.62-2.69,2.54-4.29,4.61-5.13c4.85-1.98,14.95-8.17,19.91-7.68
				C285.42,687.08,287.35,705.35,243.44,721.85z"/>
			<path class="st30" d="M317.45,597.5c7.94-4.93,15.93-7.84,21.99-8.38c-12.98,13.18-20.47,24.91-22.46,35.22
				c-8.8,3.04-16.08,2.93-18.45-0.91C295.04,617.75,303.52,606.14,317.45,597.5z"/>
			<path class="st27" d="M315.68,618.89l8.52,9.93c1.15,4.04-4.69,7.69-7.81,5.53l-8.5-10.22
				C306.94,621.75,312.38,615.54,315.68,618.89z"/>
			<polygon class="st27" points="317.53,622.52 321.9,616.57 323.62,617.97 320.95,625.14 319.96,624.95 			"/>
			<path class="st27" d="M346.11,591.77c-2.24,7.41-10.01,15.31-23.32,23.7l2.66,2.2C340.55,607.43,348.88,598.95,346.11,591.77z"/>
			<path class="st30" d="M318.98,632.39c5.7,9.89,6.57,19.23,2.64,28.05c4.25-4.37,5.76-16.86,0.11-23.6
				c4.69,3.87,7.08,9.39,7.15,16.55c0.24-9.18-2.4-16.16-7.94-20.92C320.41,631.43,319.74,631.41,318.98,632.39z"/>
			<path class="st30" d="M344.82,582.18c0.11-3.23-0.85-7.69-2.68-11.69l-1.37-1l-3.72,0.57c-0.91-0.39-1.73-1.32-2.43-2.82
				c-1.76-0.36-2.66-1.8-2.66-4.32c-1.75-1.11-2.58-2.86-2.51-5.25c-1.98-2.49-2.17-5.04-0.55-7.67
				c-7.6-11.4-17.51-21.53-29.72-30.38c-20.88-9.53-51.38,14.35-50.54,33.35l7.43,13.81l8.44-3.55c2.63-4.06,6.87-7.5,11.47-10.23
				c13.89-12.32,45.99,3.08,26.16,27.72l0.23,6.65c-3.51-0.68-2.48-0.66-6.88-2.41c-2.36,2.79-4.99,6.03-6,6.5
				c-4.57,2.45-6.53,6.91-9.75,8.57c1.76,4.04,6.41,9.85,13.93,17.4C291.77,597.99,331.38,574.11,344.82,582.18z"/>
			<path class="st30" d="M340.45,668.1c2.53,5.91,1.26,8.89-3.79,8.89C334.55,673.4,340,672.49,340.45,668.1z"/>
			<path class="st30" d="M276.7,552.51c-0.37,0.33-0.48,0.34-0.86,0.73c-4.6,2.73-8.73,6.07-11.36,10.13l-8.28,3.53l-7.7-13.92
				c-0.33-7.59,4.33-15.93,11.35-22.62C265.09,537.59,270.99,545.3,276.7,552.51L276.7,552.51z M289.04,612.75
				c-4.92-5.31-8.06-9.56-9.44-12.7c3.22-1.66,5.18-6.12,9.75-8.57c1.01-0.47,3.78-3.83,6.14-6.62c2.57,1.2,4.09,2,6.96,2.35
				c0.87,0.1,2.45,0.79,2.74,1.25C299.19,592.23,292.11,599.39,289.04,612.75z"/>
			<path class="st27" d="M323.85,543.03c-5.39-3.95-18.73-1.41-32.31,5.97l-4.72-0.23c15.99-9.26,32.92-12.44,36.93-5.95
				C323.81,542.88,323.82,542.95,323.85,543.03z"/>
			<path class="st27" d="M304.55,558.03c6.79-2.88,18.24-5.02,23.26-5.1l0.21,1.99c-4.98,0.33-16.08,2.81-22.51,5.65L304.55,558.03z
				"/>
			<path class="st27" d="M268.32,526.58c14.59-9.02,29.39-11.54,33.04-5.61c0.04,0.06,0.09,0.14,0.12,0.22
				c-5.19-3.83-18.48-0.99-31.62,7.11c-14.42,8.9-23.23,20.84-19.92,26.83c-0.58-0.43-1.04-0.93-1.41-1.52
				C244.87,547.68,253.72,535.57,268.32,526.58z"/>
			<path class="st27" d="M276.54,536.05c16.1-9.64,32.49-12.19,36.61-5.72c0.05,0.08,0.1,0.17,0.14,0.22
				c-5.81-4.21-20.53-1.26-35.02,7.4c-15.91,9.53-25.58,22.41-21.83,28.97c-0.64-0.47-1.17-1.03-1.58-1.68
				C250.74,558.77,260.45,545.71,276.54,536.05z"/>
			<path class="st27" d="M310.37,584.67c15.3-9.63,30.78-12.37,34.56-6.14c0.03,0.08,0.08,0.16,0.12,0.22
				c-5.41-4-19.31-0.91-33.08,7.75c-15.13,9.51-24.43,22.17-20.98,28.5c-0.62-0.44-1.11-0.98-1.48-1.61
				C285.73,607.15,295.05,594.29,310.37,584.67z"/>
			<path class="st29" d="M295.93,564.98c2.6-4.11,3.74-6.31,2.27-12.24c14.25,6.15,6.83,21.97,6.8,21.72
				C304.19,568.68,300.2,566.37,295.93,564.98z"/>
			<path class="st29" d="M293.89,582.18c2.75,0.25,4.6,1.28,7.42-0.81c0.17,4.39,0.03,2.12-0.04,4.82
				C301.27,586.36,295.51,584.54,293.89,582.18z"/>
			
				<ellipse transform="matrix(0.7976 -0.6031 0.6031 0.7976 -286.743 295.859)" class="st29" cx="297.52" cy="575.24" rx="5.63" ry="4.79"/>
			<path class="st29" d="M301.65,569.95c-4.74-2.59-9.47-1.26-10.86,5.81c-1.35-3.9-0.18-7.18,2.02-8.59
				C296.5,564.8,301.9,570.1,301.65,569.95z"/>
			<path class="st29" d="M273.25,554.1c0.42-0.62,2.26-1.08,3.08-1.4c0.05-0.02,1.2,7.52,11.93,17.15c0,2.28,0.9,6.13,1.5,8.73
				C289.8,578.74,279.21,566.39,273.25,554.1z"/>
		</g>
	</g>
	<g id="TU-Logo">
		<polygon class="st31" points="358.57,305.52 349.51,320.05 373.33,314.49 356.81,354.33 369.16,367 391.62,309.73 414.65,306.37 
			399.39,292.51 		"/>
		<polygon class="st32" points="397.96,315.96 377.69,370.67 421.84,358.93 425.07,322.22 418.24,314.49 409.49,347.95 
			400.15,349.51 409.98,314.49 		"/>
	</g>
</g>
</svg>
