<?xml version="1.0" encoding="utf-8"?>
<!-- Generator: Adobe Adobe Illustrator 24.2.0, SVG Export Plug-In . SVG Version: 6.00 Build 0)  -->
<svg version="1.1" id="Ebene_1" xmlns="http://www.w3.org/2000/svg" xmlns:xlink="http://www.w3.org/1999/xlink" x="0px" y="0px"
	 width="694px" height="232px" viewBox="0 0 694 232" style="enable-background:new 0 0 694 232;" xml:space="preserve">
<style type="text/css">
	.st0{fill:#B02524;}
	.st1{display:none;stroke:#000000;stroke-width:3.5846;stroke-miterlimit:10;}
	.st2{fill:#FFFFFF;}
	.st3{fill:#ABBA7D;}
	.st4{fill:#B01D25;}
	.st5{fill:#F0ECE1;}
	.st6{fill:#102138;}
	.st7{fill:#3E5416;}
	.st8{fill:#ABBA7C;}
	.st9{fill:#EE9324;}
	.st10{fill:#F5E32F;}
	.st11{fill:#ED922C;}
	.st12{display:none;fill:#FFFFFF;}
	.st13{opacity:0.6;fill:#EFE331;}
	.st14{opacity:0.6;fill:#38309C;}
	.st15{opacity:0.6;fill:#FB2813;}
	.st16{fill:#CBC15B;}
	.st17{fill:#F93115;}
	.st18{fill:#FC2D13;}
	.st19{fill:#F62F33;}
	.st20{fill:#404098;}
	.st21{fill:#F43233;}
	.st22{fill:#3F4098;}
	.st23{fill:#41B548;}
	.st24{fill:#38AD48;}
	.st25{fill:#3CB2C5;}
	.st26{fill:#43B7CE;}
	.st27{fill:#3AB0C2;}
	.st28{fill:#3EB4C9;}
	.st29{fill:#3AAF48;}
	.st30{fill:#F13A95;}
	.st31{fill:#3D409C;}
	.st32{fill:#3EB248;}
	.st33{fill:#B3AB6B;}
	.st34{fill:#6A608A;}
	.st35{fill:#68608B;}
	.st36{fill:#CDC653;}
	.st37{fill:#EDF55D;}
	.st38{fill:#EDF55C;}
	.st39{fill:#EFF65F;}
	.st40{fill:#F33F9A;}
	.st41{fill:#EEF55E;}
	.st42{fill:#39AFC0;}
	.st43{fill:#EEF55A;}
	.st44{fill:#EEF55B;}
	.st45{fill:#403996;}
	.st46{fill:#D54B37;}
	.st47{fill:#D42492;}
	.st48{fill:#3FB8CA;}
	.st49{fill:#EEF637;}
	.st50{fill:#42BDCF;}
	.st51{fill:#EEF43C;}
	.st52{fill:#EDF33D;}
	.st53{fill:#EDF23D;}
	.st54{fill:#3DB7C7;}
	.st55{fill:none;}
</style>
<g>
	<path class="st2" d="M330.73,216.77c-0.5,0.04-0.99,0.11-1.49,0.11c-39.98,0-79.96-0.01-120.16-0.31c-0.22-2.8-0.22-5.31-0.21-8.05
		c0.02-55.34,0.02-110.45,0.03-165.56c0-7.66,0.03-15.32,0.27-23c13.39,0,26.56,0.02,39.71,0.27c-0.01,49.88-0.01,99.54-0.01,149.31
		c5.55,0,10.76,0,16.21,0.05c12.09,0.07,23.96,0.08,35.83,0.11c9.96,0.02,19.91,0.07,29.86,0.33c0.02,13.06,0.04,25.89,0.02,38.95
		C330.74,211.74,330.73,214.25,330.73,216.77z"/>
	<path class="st17" d="M26.28,216.85c-5.31,0-10.63,0-16.13,0c0-65.68,0-131.12,0-197.06c2.28,0,4.65,0,7.36,0.05
		c0.34,0.05,0.55,0.14,0.52,0.36C18,82.38,17.99,144.33,17.98,206.28c0,0.25,0.02,0.5,0,0.75c-0.13,1.3,0.46,1.79,1.74,1.75
		c2.08-0.06,4.16-0.02,6.25,0.21c0.05,2.74,0.1,5.24,0.19,7.77C26.2,216.79,26.28,216.85,26.28,216.85z"/>
	<path class="st18" d="M208.86,208.76c0,2.51,0,5.01-0.01,7.75c-5.23,0.23-10.45,0.23-15.83,0.23c0-65.6,0-131.03,0-196.95
		c2.31,0,4.68,0,7.39,0.05c0.34,0.05,0.55,0.14,0.52,0.36c-0.04,0.56-0.06,0.89-0.06,1.22c0,61.53,0,123.07,0,184.6
		c0,0.33,0.03,0.67,0,1c-0.12,1.3,0.46,1.79,1.74,1.75C204.7,208.71,206.78,208.76,208.86,208.76z"/>
	<path class="st19" d="M524.02,216.84c-5.31,0-10.62,0-16.09,0c0-65.69,0-131.07,0-197.05c2.26,0,4.62,0,7.33,0.05
		c0.34,0.05,0.56,0.13,0.52,0.35c-0.05,0.64-0.08,1.06-0.08,1.47c0,61.46,0,122.92,0,184.39c0,0.33,0.03,0.67,0,1
		c-0.13,1.32,0.51,1.76,1.76,1.73c2.08-0.05,4.16,0,6.24,0.24c0.05,2.73,0.11,5.22,0.2,7.75
		C523.94,216.79,524.02,216.84,524.02,216.84z"/>
	<path class="st20" d="M497.55,80.58c0.08,0.57,0.22,1.14,0.22,1.72c0.01,27.38,0.14,54.77-0.06,82.15
		c-0.09,12.25-4.8,23-12.49,32.41c-8.07,9.89-18.41,16.51-30.64,19.95c-5.11,1.44-10.43,2.36-15.71,2.93
		c-5.47,0.59-11.02,0.48-16.77,0.53c-0.26-0.26-0.28-0.38-0.07-0.48c1.12,0.01,2.07,0.14,2.94-0.07c5.23-1.26,10.49-2.42,15.65-3.95
		c8.42-2.49,15.83-6.91,22.27-12.84c3.11-2.86,5.87-6.12,8.95-9.21c0.38-0.36,0.59-0.71,0.82-1.02c0.02,0.03-0.04-0.01,0.13-0.01
		c3.1-3.68,6.43-7.11,8.82-11.11c2.25-3.77,3.55-8.12,5.21-12.24c2-4.95,2.79-10.2,2.82-15.46c0.13-24.36,0.06-48.71,0.28-73.14
		C492.62,80.65,495.08,80.62,497.55,80.58z"/>
	<path class="st21" d="M421.82,219.77c0.01,0.13,0.03,0.25,0.07,0.42c-5.56-0.07-11.14-0.09-16.72-0.34
		c-2.87-0.13-5.73-0.64-8.58-1.05c-8.08-1.15-15.53-4.18-22.48-8.26c-10.49-6.17-18.56-14.74-23.76-25.83
		c-1.2-2.56-2.07-5.28-3.28-8.21c-0.56-2.63-0.92-4.97-1.29-7.53c-0.27-1.84-0.54-3.47-0.81-5.09c-0.04-0.58-0.12-1.15-0.12-1.73
		c0-26.82,0.01-53.63,0.23-80.74c2.74-0.37,5.27-0.46,7.77-0.31c-0.04,22.09-0.01,43.95-0.09,65.8c-0.02,6.16,0.31,12.26,2,18.21
		c1.12,3.94,2.21,7.94,3.82,11.69c1.33,3.1,3.24,5.99,5.19,8.76c1.99,2.82,4.34,5.38,6.8,8.38c0.1-1.04,0.15-1.6,0.38-2.13
		c2.82,3.96,5.61,7.71,9.17,10.97c6.55,6.01,13.99,10.27,22.34,13.19C408.76,218.16,415.12,219.78,421.82,219.77z"/>
	<path class="st22" d="M257.05,19.68c2.52,0.1,5.05,0.19,7.72,0.65c0.15,46.4,0.15,92.43,0.14,138.46c0,0.99-0.11,1.98-0.39,2.98
		c-1.89,0.01-3.57-0.11-5.22,0.05c-2.04,0.21-2.5-0.63-2.5-2.55c0.05-46.44,0.05-92.88,0.1-139.4
		C256.95,19.81,257.05,19.68,257.05,19.68z"/>
	<path class="st20" d="M171.04,121.79c4.07,2.99,6.54,7.24,8.81,11.57c2.8,5.33,4.82,10.95,5.14,17.05
		c0.23,4.45,1.04,8.96,0.61,13.34c-2.01,20.59-12.37,35.61-30.79,45.15c-6.04,3.13-12.4,5.22-18.97,6.63
		c-4.1,0.88-8.38,1.23-12.58,1.24c-32.22,0.13-64.44,0.12-96.83,0.11c-0.16-0.04-0.24-0.1-0.07-0.08c24.98,0.03,49.78,0.08,74.58,0
		c4.09-0.01,8.17-0.74,12.26-0.91c6.14-0.25,11.88-2.03,17.62-4.03c7.61-2.65,14.52-6.45,20.39-11.96c3.4-3.19,6.43-6.77,9.8-10.18
		c2.12-2.21,4.09-4.39,6-6.61c3.27-3.81,5.32-8.29,6.85-13c0.95-2.91,2.08-5.88,2.28-8.88c0.45-6.74,0.44-13.52,0.46-20.28
		c0.01-1.59-0.37-3.27-0.97-4.75c-1.72-4.27-3.67-8.43-5.42-12.69C170.06,123.13,170.75,122.38,171.04,121.79z"/>
	<path class="st22" d="M671.73,124.8c2.28,3.33,4.95,6.46,6.77,10.02c4.91,9.62,6.16,20.09,4.89,30.61
		c-2.38,19.68-12.72,34.11-30.32,43.36c-6.1,3.2-12.58,5.27-19.23,6.75c-3.69,0.82-7.54,1.2-11.32,1.22
		c-32.72,0.12-65.44,0.12-98.32,0.12c-0.16-0.03-0.25-0.08-0.08-0.05c23.47,0.03,46.76,0.01,70.06,0.06
		c8.08,0.02,16.17,0.19,24.04-2.05c4.95-1.41,10.1-2.37,14.76-4.42c9.9-4.35,18.32-10.81,24.95-19.63c0.33-0.35,0.52-0.67,0.7-0.99
		c0,0,0.01,0,0.18-0.02c0.64-0.35,1.19-0.6,1.56-1.02c4.9-5.41,9.03-11.23,11.42-18.28c1.63-4.82,2.97-9.6,2.83-14.72
		c-0.01-0.41-0.07-0.89,0.1-1.23c2.49-5.05-1.03-9.94-0.39-14.97c0.18-1.42-0.47-3.04-1.03-4.46c-1.48-3.74-3.11-7.42-4.7-11.11
		c-0.47-1.09-0.39-1.77,1.02-1.67c0,0-0.01,0.01,0.03,0.13c0.18,0.2,0.32,0.29,0.47,0.37c0,0-0.01,0.01,0.04,0.12
		c0.14,0.26,0.28,0.35,0.45,0.38c0,0,0,0-0.01,0.19C670.97,124.06,671.35,124.43,671.73,124.8z"/>
	<path class="st23" d="M515.82,19.97c0,0-0.22-0.08-0.31-0.14c0.01-2.12,0.19-4.19,0.18-6.25c-0.01-1.31,0.51-1.83,1.75-1.77
		c0.33,0.01,0.67-0.01,1-0.01c33.2,0.02,66.4-0.37,99.58,0.24c15.51,0.28,29.12,6.46,39.53,18.55c-1.15-0.32-2.15-0.84-3.11-1.43
		c-6.44-4.01-13.46-6.89-20.87-7.99c-7.15-1.06-14.49-0.83-22-1.2c-17.48-0.04-34.71-0.07-51.94-0.07c-11.65,0-23.3,0.05-35.18,0.04
		C521.42,19.92,518.62,19.94,515.82,19.97z"/>
	<path class="st24" d="M18.07,19.98c0,0-0.22-0.09-0.31-0.15c0.04-2.54,0.17-5.02,0.33-7.82c0.73-0.06,1.51-0.2,2.3-0.2
		c33.27,0.01,66.53-0.18,99.8,0.17c11.22,0.12,21.62,3.95,30.82,10.58c1.5,1.08,2.79,2.45,4.35,3.92c0.29,0.34,0.42,0.4,0.58,0.42
		c0,0-0.03,0.01-0.05,0.17c-0.37,0.41-0.73,0.66-1.23,0.9c-0.33-0.08-0.52-0.13-0.74-0.35c-0.38-0.33-0.72-0.5-1.25-0.69
		c-5.95-1.99-11.59-4.73-17.53-5.74c-6.88-1.18-14.02-0.85-21.3-1.2c-25.69-0.04-51.13-0.06-76.57-0.07
		c-3.74,0-7.48,0.06-11.46,0.05C23.07,19.94,20.57,19.96,18.07,19.98z"/>
	<path class="st25" d="M415.77,161.71c0.35,0.9,0.7,1.8,1.08,3.07c0.3,1.27,0.4,2.28,0.9,3.03c0.91,1.37,2.07,2.58,3.01,4.02
		c-2.5,2.33-5.45,2-8.33,1.99c-7.24-0.01-12.58-6.17-12.6-12.59c-0.11-26.79-0.03-53.58,0.21-80.39c2.73-0.02,5.22-0.02,7.72,0.22
		c0,24.28,0,48.31,0,72.35c0,5.04,2.95,9.21,7.86,11.03C415.67,163.52,415.72,162.61,415.77,161.71z"/>
	<path class="st26" d="M611.83,20c7.26,0.34,14.6,0.11,21.75,1.17c7.41,1.1,14.43,3.97,20.87,7.99c0.95,0.59,1.96,1.11,3.12,1.6
		c0.18-0.06,0.17-0.04,0.16,0.16c0.35,0.37,0.71,0.55,1.07,0.73c1.26,1.13,2.51,2.26,3.63,3.6c-0.23,0.65-0.56,1.3-0.37,1.53
		c4.55,5.64,6.63,12.5,7.29,19.31c0.72,7.47,0.92,15.1-1.49,22.68c-1.99,6.25-5.43,11.35-9.19,16.4c-0.98,1.32-2.63,2.15-3.97,3.03
		c3.56-5.41,6.09-11.27,6.7-17.41c0.78-7.93,0.92-15.94-1.53-23.86c-2.37-7.67-6.16-14.38-11.74-19.91
		c-9.59-9.5-21.26-14.92-34.76-16.26C612.82,20.69,612.33,20.25,611.83,20z"/>
	<path class="st27" d="M153.94,27.76c0.19,0.06,0.37,0.12,0.75,0.36c1.98,1.2,3.77,2.21,5.56,3.23c1.9,1.72,3.8,3.44,5.55,5.36
		c-0.23,0.87-0.62,1.7-0.35,2.17c4.82,8.45,7.03,17.5,6.4,27.2c-0.23,3.5-0.16,7.2-1.28,10.43c-1.73,4.96-4.05,9.79-6.75,14.3
		c-1.71,2.86-4.56,5.05-6.91,7.35c0.1-0.49,0.16-0.84,0.34-1.1c3.86-5.51,5.88-11.8,6.49-18.32c0.67-7.13,0.51-14.3-1.65-21.37
		c-1.66-5.41-3.81-10.54-7.26-14.91c-10.05-12.76-23.2-20.11-39.46-21.72c-0.45-0.04-0.85-0.49-1.28-0.75
		c7.03,0.32,14.16-0.01,21.04,1.17c5.93,1.02,11.57,3.75,17.58,5.89C153.28,27.41,153.61,27.58,153.94,27.76z"/>
	<path class="st28" d="M171,121.62c-0.25,0.76-0.94,1.51-0.78,1.91c1.74,4.26,3.7,8.43,5.42,12.69c0.6,1.48,0.97,3.16,0.97,4.75
		c-0.02,6.76-0.01,13.54-0.46,20.28c-0.2,3-1.33,5.97-2.28,8.88c-1.53,4.71-3.58,9.19-6.85,13c-1.91,2.23-3.88,4.4-5.99,6.43
		c0.09-0.68,0.3-1.22,0.6-1.7c3.78-5.99,6.39-12.62,7.03-19.51c0.81-8.66,1.2-17.46-1.58-26.08c-1.95-6.04-4.56-11.64-8.61-16.47
		c-4.1-4.9-8.68-9.31-14.27-12.55c-1.04-0.61-2.15-1.25-0.46-2.53c2.75-2.08,5.41-4.27,8.14-6.23c0.36,0.57,0.65,1.01,1.04,1.33
		c1.99,1.66,4.01,3.3,5.91,5.07c-0.14,0.68-0.39,1.61-0.17,1.74c2.16,1.28,4.39,2.44,6.61,3.63
		C167.15,117.99,169.06,119.72,171,121.62z"/>
	<path class="st28" d="M669.58,122.15c-1.38,0.07-1.47,0.75-1,1.84c1.59,3.69,3.22,7.37,4.7,11.11c0.56,1.41,1.21,3.03,1.03,4.46
		c-0.65,5.03,2.88,9.92,0.39,14.97c-0.17,0.34-0.11,0.82-0.1,1.23c0.13,5.12-1.21,9.9-2.83,14.72c-2.38,7.05-6.52,12.87-11.42,18.28
		c-0.37,0.41-0.92,0.67-1.55,0.83c3.66-6.23,6.7-12.81,7.53-19.84c0.63-5.36,2.1-10.77,0.63-16.47c-0.96-3.72-1.08-7.7-2.15-11.54
		c-2.12-7.67-6.21-14.14-11.62-19.69c-3.41-3.5-7.7-6.12-11.54-9.22c-0.41-0.33-0.72-1.6-0.53-1.75c2.75-2.18,5.6-4.24,8.47-6.16
		c0.35,0.42,0.65,0.66,0.95,0.9c2.02,1.66,4.05,3.32,6.05,5.16c-0.04,0.65-0.26,1.42-0.07,1.55c2.81,1.78,5.67,3.47,8.53,5.18
		c0,0,0.12,0.04,0.2,0.16c0.14,0.22,0.23,0.27,0.36,0.27c0,0,0.08,0.13,0.1,0.27c0.06,0.23,0.14,0.27,0.24,0.26
		C667.15,119.76,668.35,120.87,669.58,122.15z"/>
	<path class="st29" d="M264.52,164c0.06-0.71,0.39-2.15,0.39-2.15l73.94,0.66l-0.08,7.21c0,0-53.45,0.06-73.93-0.28
		C264.58,167.49,264.55,165.77,264.52,164z"/>
	<path class="st30" d="M208.9,211.2c0.09-0.71,0.64-2.15,0.64-2.15l121.26,0.66l-0.13,7.21c0,0-87.66,0.06-121.24-0.28
		C209,214.69,208.95,212.96,208.9,211.2z"/>
	<path class="st20" d="M158.92,110.77c-2.01-1.65-4.03-3.28-6.02-4.94c-0.39-0.32-0.68-0.76-0.97-1.49c1.69-2.23,3.34-4.11,5-5.99
		c2.34-2.49,5.19-4.67,6.9-7.53c2.7-4.51,5.02-9.35,6.75-14.3c1.13-3.24,1.06-6.93,1.28-10.43c0.63-9.7-1.58-18.75-6.4-27.2
		c-0.27-0.47,0.12-1.3,0.39-2c2.77,3.07,5.76,5.93,7.83,9.34c3.77,6.2,5.54,13.07,6.5,20.36c0.7,5.32,0.28,10.45-0.58,15.46
		c-1.76,10.33-7.13,18.85-15.13,25.65c-1.12,0.95-2.35,1.76-3.78,2.82C159.93,110.72,159.42,110.75,158.92,110.77z"/>
	<path class="st31" d="M656.34,109.63c-2.02-1.66-4.04-3.32-6.07-4.98c-0.3-0.24-0.6-0.48-0.92-1.07c1.68-2.36,3.37-4.38,5.06-6.39
		c1.34-1.05,2.98-1.88,3.97-3.2c3.76-5.05,7.2-10.15,9.19-16.4c2.41-7.58,2.21-15.22,1.49-22.68c-0.66-6.8-2.73-13.67-7.29-19.31
		c-0.19-0.23,0.14-0.87,0.4-1.36c0.17-0.03,0.16-0.03,0.17,0.14c0.84,0.89,1.67,1.61,2.5,2.32c0,0-0.01,0.01,0.04,0.12
		c0.18,0.2,0.32,0.29,0.46,0.38c0,0-0.01,0,0.03,0.12c0.18,0.21,0.32,0.29,0.46,0.38c0,0,0,0,0.04,0.11
		c0.13,0.26,0.25,0.36,0.41,0.41c4.24,4.24,6.96,9.44,8.92,14.97c2.23,6.3,3.41,12.89,3.03,19.61c-0.85,14.89-6.71,27.17-19.44,35.9
		c-0.26,0.01-0.43,0.03-0.58,0.01c-0.41,0.25-0.67,0.51-1.08,0.81C656.77,109.6,656.55,109.62,656.34,109.63z"/>
	<path class="st20" d="M415.8,161.49c-0.08,1.13-0.13,2.03-0.18,2.96c-4.91-1.82-7.86-5.99-7.86-11.03c0-24.04,0-48.08,0.22-72.43
		c2.69-0.34,5.16-0.37,7.62-0.4c0.08,0.82,0.22,1.64,0.22,2.46C415.83,109.12,415.82,135.19,415.8,161.49z"/>
	<path class="st21" d="M426.61,164.43c0.1-1.41,0.19-2.82,0.53-4.5c0.34-1.15,0.53-2.04,0.53-2.93c0.02-19.04,0.02-38.08,0.01-57.12
		c0-6.32-0.06-12.63-0.09-18.95c0,0,0.11-0.14,0.4-0.15c2.78,0.01,5.28,0.04,7.77,0.3c-0.64,24.94,1.21,49.68-0.97,74.37
		c-0.3,3.35-4.69,8.79-8.02,9.32C426.72,164.64,426.61,164.43,426.61,164.43z"/>
	<path class="st32" d="M435.75,80.85c0-6.98,0.12-8.9,0.12-8.9h53.84l0.22,8.81L435.75,80.85z"/>
	<path class="st32" d="M352.82,80.85c0-6.98,0.12-8.9,0.12-8.9h53.84l0.22,8.81L352.82,80.85z"/>
	<path class="st29" d="M200.97,19.98c0,0-0.22-0.09-0.31-0.16c0.04-2.55,0.18-5.03,0.32-7.77c18.53,0,37.09,0,56,0
		c0,2.42,0,4.81,0.03,7.41c0.03,0.22-0.07,0.34-0.35,0.4c-2.77,0.09-5.27,0.12-7.77,0.15c-13.17-0.03-26.33-0.05-39.97-0.09
		C205.97,19.94,203.47,19.96,200.97,19.98z"/>
	<path class="st22" d="M338.77,169.72c2.22-0.12,4.43-0.24,6.83-0.45c0.55,2.25,0.92,4.59,1.3,7.15
		c-0.02,12.51-0.06,24.82-0.1,37.12c0,0.98,0,1.96,0,3.28c-5.35,0-10.48,0-15.84-0.03c-0.23-2.54-0.23-5.06,0.05-7.81
		c1.85-0.23,3.44-0.36,5-0.2c2.15,0.22,2.84-0.47,2.82-2.73C338.72,193.95,338.78,181.84,338.77,169.72z"/>
	<path class="st29" d="M426.46,164.49c0.16-0.06,0.26,0.16,0.23,0.43c-1.57,2.45-3.11,4.62-4.8,6.79c-0.44-0.01-0.73-0.02-1.02-0.03
		c-1.05-1.28-2.2-2.49-3.12-3.86c-0.5-0.75-0.6-1.77-0.84-2.85C420.09,166.11,423.22,166.23,426.46,164.49z"/>
	<path class="st32" d="M656.59,110.98c0.23-0.19,0.45-0.21,0.98-0.23c0.57-0.28,0.82-0.55,1.07-0.83c0,0,0.17-0.02,0.24,0
		c0.51,0.85,0.8,1.8,1.39,2.49c1.48,1.73,3.11,3.35,4.72,5.15c-2.8-1.57-5.66-3.26-8.47-5.03
		C656.33,112.4,656.55,111.62,656.59,110.98z"/>
	<path class="st24" d="M158.81,110.9c0.61-0.15,1.12-0.18,1.81-0.22c1.67,1.74,3.15,3.5,4.62,5.43c-2.22-1.03-4.45-2.18-6.61-3.46
		C158.42,112.5,158.67,111.58,158.81,110.9z"/>
	<path class="st33" d="M160.25,31.18c-1.78-0.85-3.57-1.87-5.41-3.05c0.31-0.42,0.66-0.67,1.04-1.1
		C157.35,28.25,158.8,29.63,160.25,31.18z"/>
	<path class="st34" d="M665.04,37.73c-0.76-0.57-1.59-1.29-2.43-2.18C663.4,36.11,664.19,36.85,665.04,37.73z"/>
	<path class="st35" d="M671.7,124.63c-0.35-0.21-0.73-0.57-1.1-1.13C670.96,123.71,671.32,124.09,671.7,124.63z"/>
	<path class="st36" d="M658.74,31.5c-0.31-0.03-0.67-0.21-1.03-0.57C658.04,30.95,658.36,31.15,658.74,31.5z"/>
	<path class="st34" d="M665.61,38.24c-0.13,0.05-0.27-0.04-0.45-0.25C665.27,37.95,665.44,38.02,665.61,38.24z"/>
	<path class="st33" d="M665.58,118.05c-0.1,0.08-0.2,0.04-0.28-0.15C665.4,117.83,665.49,117.88,665.58,118.05z"/>
	<path class="st33" d="M665.95,118.59c-0.1,0.07-0.17,0.03-0.2-0.13C665.75,118.4,665.94,118.53,665.95,118.59z"/>
	<path class="st35" d="M670.06,122.7c-0.09,0.03-0.23-0.06-0.41-0.27C669.78,122.36,669.91,122.45,670.06,122.7z"/>
	<path class="st35" d="M670.6,123.18c-0.17,0.11-0.3,0.02-0.45-0.24C670.27,122.89,670.43,122.96,670.6,123.18z"/>
	<path class="st34" d="M666.56,39.26c-0.16,0.09-0.29-0.01-0.41-0.27C666.26,38.96,666.41,39.04,666.56,39.26z"/>
	<path class="st34" d="M666.05,38.77c-0.09,0.03-0.23-0.06-0.41-0.27C665.77,38.42,665.91,38.52,666.05,38.77z"/>
	<path class="st33" d="M155.87,26.79c-0.1,0.08-0.23,0.02-0.41-0.18C155.55,26.53,155.68,26.59,155.87,26.79z"/>
	<path class="st37" d="M200.93,20.2c2.53-0.25,5.03-0.27,7.77-0.25c0.22,7.69,0.2,15.35,0.2,23.01
		c-0.01,55.11-0.01,110.22-0.03,165.56c-2.1,0.23-4.18,0.19-6.26,0.25c-1.28,0.04-1.87-0.45-1.74-1.75c0.03-0.33,0-0.67,0-1
		c0-61.53,0-123.07,0-184.6C200.88,21.09,200.89,20.76,200.93,20.2z"/>
	<path class="st25" d="M248.88,20.23c2.51-0.26,5.01-0.29,7.75-0.3c0.23,46.46,0.23,92.9,0.17,139.34c0,1.92,0.46,2.75,2.5,2.55
		c1.65-0.17,3.33-0.04,5.22-0.05c0.26,2.45,0.29,4.9,0.32,7.57c-5.21,0.21-10.42,0.21-15.97,0.21
		C248.87,119.77,248.87,70.12,248.88,20.23z"/>
	<path class="st28" d="M338.54,169.7c0.23,12.13,0.18,24.24,0.29,36.35c0.02,2.26-0.67,2.95-2.82,2.73
		c-1.56-0.16-3.15-0.03-4.96-0.03c-0.25-12.83-0.28-25.66-0.3-38.72C333.28,169.77,335.8,169.73,338.54,169.7z"/>
	<path class="st2" d="M156.92,98.16c-1.64,2.06-3.3,3.94-5.02,5.98c-2.76,2.3-5.42,4.5-8.17,6.58c-1.69,1.27-0.58,1.92,0.46,2.53
		c5.59,3.24,10.17,7.66,14.27,12.55c4.06,4.84,6.66,10.43,8.61,16.47c2.78,8.62,2.38,17.42,1.58,26.08
		c-0.64,6.89-3.24,13.52-7.03,19.51c-0.3,0.48-0.51,1.02-0.77,1.71c-3.2,3.59-6.24,7.16-9.63,10.35
		c-5.86,5.51-12.78,9.31-20.39,11.96c-5.74,2-11.48,3.77-17.62,4.03c-4.09,0.17-8.17,0.89-12.26,0.91
		c-24.8,0.08-49.6,0.03-74.62-0.03c-0.26-2.56-0.31-5.06-0.35-8.03C26,153.35,26,98.41,26.01,43.46c0-7.82,0.03-15.65,0.04-23.47
		c3.74-0.03,7.48-0.09,11.22-0.09c25.44,0.01,50.88,0.03,76.57,0.07c0.68,0.28,1.08,0.73,1.53,0.77
		c16.26,1.61,29.42,8.97,39.46,21.72c3.44,4.37,5.6,9.5,7.26,14.91c2.17,7.06,2.32,14.24,1.65,21.37
		c-0.61,6.52-2.63,12.81-6.49,18.32C157.07,97.33,157.02,97.67,156.92,98.16z M95.35,95.87c5.99-0.41,12.08,0.97,17.99-1.01
		c3.99-1.34,7.33-3.45,9.63-7.12c2.25-3.6,2.02-7.54,1.97-11.48c-0.09-6-2.32-10.74-8.09-13.78c-3.08-0.86-6.12-2.25-9.25-2.48
		c-5.36-0.39-10.77-0.07-16.63,0.02c-3.27,0.01-6.54,0.03-10.2-0.08c-0.27,0.01-0.55,0.02-1.28-0.05c-2.18,0.03-4.36,0.05-7,0
		c-2.46,0-4.92,0-7.43,0c0,12.15,0,23.92,0,35.89c5.37,0,10.58,0,16.27,0.07C85.85,95.84,90.36,95.84,95.35,95.87z M120.84,137.44
		c-3.09-0.87-6.14-2.24-9.29-2.5c-4.86-0.41-9.78-0.06-15.14,0.01c-5.08,0-10.16,0-15.63-0.12c-0.27,0-0.54,0.01-1.28-0.06
		c-2.19,0.03-4.38,0.05-7.04,0.01c-2.46,0-4.91,0-7.42,0c0,14.17,0,27.93,0,41.89c5.36,0,10.57,0,16.27,0.08
		c5.19,0,10.37,0,16.03,0.04c2.66,0,5.33-0.08,7.98,0.03c5.93,0.25,11.69-0.3,16.55-4.07c2.23-1.73,4.68-3.69,5.9-6.11
		c2.3-4.54,3.17-9.39,2.32-14.77C129.11,145.54,125.95,141.21,120.84,137.44z"/>
	<path class="st38" d="M25.81,19.95c0.22,7.86,0.2,15.69,0.2,23.51C26,98.41,26,153.35,25.98,208.52c-2.1,0.23-4.18,0.19-6.26,0.25
		c-1.28,0.04-1.87-0.45-1.74-1.75c0.02-0.25,0-0.5,0-0.75C17.99,144.33,18,82.38,18.04,20.2C20.57,19.96,23.07,19.94,25.81,19.95z"
		/>
	<path class="st2" d="M654.68,98.19c-1.69,2.19-3.38,4.21-5.1,6.39c-2.85,2.26-5.7,4.32-8.45,6.5c-0.19,0.15,0.12,1.42,0.53,1.75
		c3.83,3.1,8.12,5.73,11.54,9.22c5.41,5.55,9.5,12.02,11.62,19.69c1.06,3.84,1.19,7.82,2.15,11.54c1.47,5.7,0,11.11-0.63,16.47
		c-0.82,7.03-3.87,13.6-7.7,19.85c-0.01,0.18-0.02,0.18-0.17,0.21c-0.33,0.35-0.51,0.67-0.69,0.99c-6.49,8.79-14.9,15.25-24.8,19.6
		c-4.67,2.05-9.82,3.01-14.76,4.42c-7.88,2.24-15.96,2.07-24.04,2.05c-23.3-0.05-46.59-0.02-70.1-0.08
		c-0.26-2.55-0.32-5.05-0.18-7.83c0.38-1.3,0.74-2.3,0.74-3.31c0.03-35.19,0.02-70.38,0.03-105.57c0-26.7,0.02-53.41,0.03-80.11
		c11.65-0.03,23.3-0.07,34.95-0.07c17.23,0,34.46,0.03,51.94,0.07c0.76,0.29,1.25,0.72,1.78,0.78c13.5,1.34,25.17,6.76,34.76,16.26
		c5.58,5.53,9.37,12.24,11.74,19.91c2.45,7.93,2.31,15.94,1.53,23.86C660.77,86.92,658.24,92.78,654.68,98.19z M570.21,59.9
		c-2.46,0-4.91,0-7.37,0c0,12.17,0,23.94,0,35.89c5.38,0,10.59,0,16.28,0.06c4.49,0,8.99-0.01,13.95,0.02
		c4.66-0.01,9.34,0.17,13.99-0.08c3.81-0.2,7.3-1.76,10.25-4.14c3.55-2.87,5.16-6.63,5.55-11.34c0.6-7.18-1.24-14.82-8.3-17.85
		c-2.87-0.86-5.71-2.26-8.63-2.47c-5.42-0.38-10.88-0.06-16.79,0.01c-3.43,0.03-6.86,0.06-10.77-0.07
		C575.81,59.95,573.24,59.96,570.21,59.9z M570.2,134.78c-2.45,0-4.91,0-7.37,0c0,14.19,0,27.95,0,41.78
		c0.46,0.08,0.77,0.19,1.09,0.19c4.9-0.02,9.81-0.06,15.18-0.01c5.16,0,10.33,0,15.97,0.04c6.49-0.15,13.15,0.96,19.42-1.15
		c8.67-2.91,13.39-9.98,14.05-18.52c0.17-2.13-0.52-4.34-0.89-6.51c-0.97-5.69-3.66-10.19-9.09-13.17c-2.88-0.87-5.71-2.27-8.64-2.5
		c-5.08-0.39-10.22-0.06-15.79,0c-5.09,0.02-10.18,0.03-15.74-0.12C575.81,134.83,573.24,134.84,570.2,134.78z"/>
	<path class="st39" d="M524.46,19.94c0.22,26.74,0.2,53.44,0.2,80.14c-0.01,35.19,0,70.38-0.03,105.57c0,1.01-0.36,2.01-0.74,3.08
		c-2.27,0.05-4.35,0-6.43,0.05c-1.26,0.03-1.89-0.41-1.76-1.73c0.03-0.33,0-0.66,0-1c0-61.46,0-122.92,0-184.39
		c0-0.42,0.02-0.83,0.08-1.47C518.62,19.94,521.42,19.92,524.46,19.94z"/>
	<path class="st2" d="M420.75,171.84c0.4-0.15,0.7-0.14,1.31-0.03c4.23,2.97,8.7,2.84,12.72,1.24c6.21-2.47,8.88-7.84,8.9-14.34
		c0.08-25.95,0.04-51.9,0.04-77.86c12.52-0.02,25.03-0.03,37.77,0.22c0.22,25.82,0.18,51.36,0.23,76.91
		c0.01,5.72,0,11.42-1.95,16.87c-1.73,4.82-3.71,9.55-5.61,14.31c-0.48,1.2-1.04,2.36-1.56,3.54c0,0,0.06,0.05-0.12,0.03
		c-0.4,0.33-0.62,0.67-0.83,1.02c-2.92,3.08-5.67,6.33-8.78,9.19c-6.44,5.93-13.85,10.35-22.27,12.84
		c-5.15,1.53-10.42,2.69-15.65,3.95c-0.87,0.21-1.82,0.08-2.94,0.07c-6.92-0.03-13.27-1.64-19.57-3.84
		c-8.35-2.92-15.78-7.18-22.34-13.19c-3.56-3.26-6.35-7.01-9.21-11.14c-2.06-3.72-4.25-7.1-5.68-10.78
		c-1.98-5.08-3.48-10.36-3.48-15.94c0.01-28.02-0.01-56.05-0.02-84.07c12.53-0.01,25.06-0.03,37.83-0.01
		c0.23,26.83,0.14,53.62,0.26,80.4c0.03,6.42,5.36,12.58,12.6,12.59C415.3,173.84,418.25,174.17,420.75,171.84z"/>
	<path class="st40" d="M522.42,209.14c0,0-0.2,0.08-0.28,0.13c0.01,1.95,0.17,3.85,0.16,5.75c-0.01,1.21,0.46,1.68,1.59,1.63
		c0.3-0.01,0.6,0.01,0.9,0.01c30.09-0.02,60.19,0.34,90.28-0.22c14.06-0.26,26.4-5.94,35.84-17.05c-1.04,0.3-1.95,0.77-2.82,1.32
		c-5.84,3.69-12.2,6.33-18.92,7.34c-6.48,0.97-13.14,0.76-19.95,1.1c-15.85,0.04-31.46,0.07-47.08,0.06
		c-10.56,0-21.12-0.04-31.89-0.03C527.51,209.18,524.97,209.16,522.42,209.14z"/>
	<path class="st40" d="M22.74,209.14c0,0-0.2,0.08-0.28,0.13c0.01,1.95,0.17,3.85,0.16,5.75c-0.01,1.21,0.46,1.68,1.59,1.63
		c0.3-0.01,0.6,0.01,0.9,0.01c30.09-0.02,60.19,0.34,90.28-0.22c14.06-0.26,26.4-5.94,35.84-17.05c-1.04,0.3-1.95,0.77-2.82,1.32
		c-5.84,3.69-12.2,6.33-18.92,7.34c-6.48,0.97-13.14,0.76-19.95,1.1c-15.85,0.04-31.46,0.07-47.08,0.06
		c-10.56,0-21.12-0.04-31.89-0.03C27.82,209.18,25.28,209.16,22.74,209.14z"/>
	<path class="st28" d="M472.8,192.7c0.35-1.18,0.91-2.35,1.38-3.54c1.89-4.76,3.88-9.49,5.61-14.31c1.95-5.44,1.96-11.15,1.95-16.87
		c-0.05-25.55-0.01-51.09,0-76.87c2.5-0.26,5-0.28,7.73-0.29c0.23,24.37,0.31,48.73,0.18,73.08c-0.03,5.26-0.82,10.5-2.82,15.46
		c-1.66,4.12-2.96,8.47-5.21,12.24C479.23,185.59,475.9,189.02,472.8,192.7z"/>
	<path class="st35" d="M471.84,193.74c0.04-0.33,0.26-0.67,0.64-1.04C472.43,193.03,472.22,193.38,471.84,193.74z"/>
	<path class="st41" d="M361.51,80.82c0.24,28.05,0.26,56.07,0.25,84.1c0,5.58,1.5,10.85,3.48,15.94c1.43,3.68,3.62,7.06,5.51,10.75
		c-0.02,0.73-0.07,1.3-0.17,2.33c-2.46-3-4.81-5.56-6.8-8.38c-1.95-2.77-3.86-5.67-5.19-8.76c-1.61-3.75-2.69-7.75-3.82-11.69
		c-1.69-5.94-2.02-12.04-2-18.21c0.07-21.86,0.04-43.71,0.09-65.8C355.69,80.84,358.48,80.82,361.51,80.82z"/>
	<path class="st30" d="M370.75,192.52c14.12,9.83,16.17,11.31,24.03,14.04c9.66,3.34,22.03,3.74,25.97,3.74
		c7.62,0,24.1-2.91,31.59-5.81c10.29-3.98,19.5-10.75,19.5-10.75s-3.97,9.41-23.19,20.06c-3.78,2.09-23.81,6.93-27.9,6.48
		c-15.63-1.7-21.31-4.74-33.53-11.23C384.71,207.72,370.75,195.55,370.75,192.52z"/>
	<path class="st35" d="M657.92,190.77c0.04-0.29,0.22-0.6,0.55-0.95C658.44,190.11,658.25,190.42,657.92,190.77z"/>
	<path class="st33" d="M153.91,27.6c-0.3-0.02-0.64-0.2-1.02-0.52C153.19,27.1,153.54,27.28,153.91,27.6z"/>
	<path class="st35" d="M658.5,109.9c-0.1,0.29-0.35,0.56-0.76,0.8C657.83,110.42,658.09,110.15,658.5,109.9z"/>
	<path class="st41" d="M443.5,80.82c0.23,25.98,0.27,51.93,0.19,77.88c-0.02,6.51-2.69,11.87-8.9,14.34
		c-4.03,1.6-8.5,1.73-12.58-1.23c1.37-2.27,2.91-4.45,4.51-6.78c3.36-0.8,7.75-6.24,8.05-9.59c2.19-24.69,0.34-49.43,0.97-74.37
		C438.26,80.83,440.76,80.82,443.5,80.82z"/>
	<path class="st42" d="M81,168.61c-0.08,2.98-0.12,5.52-0.16,8.05c-5.21,0-10.42,0-15.78,0c0-13.96,0-27.72,0-41.89
		c2.5,0,4.96,0,7.65,0.26c0.25,10.57,0.34,33.81,0.34,33.81S74.79,168.61,81,168.61z"/>
	<path class="st43" d="M120.92,137.81c5.03,3.4,8.19,7.73,9.19,14.05c0.85,5.38-0.03,10.23-2.32,14.77
		c-1.23,2.42-3.67,4.38-5.9,6.11c-4.85,3.77-10.62,4.32-16.55,4.07c-2.66-0.11-5.32-0.03-8.1-0.19c2.86-1.4,5.98-2.37,8.74-3.97
		c2.22-1.28,4.6-2.85,4.9-5.91c0,0,0.03,0.03,0.19,0.04c0.35-0.33,0.54-0.66,0.74-1c0,0,0.06-0.06,0.27-0.05
		c0.54-0.24,0.84-0.53,1.19-0.72c5.64-3.06,8.22-8.16,8.54-14.22C122.04,146.5,121.25,142.14,120.92,137.81z"/>
	<path class="st42" d="M81.02,87.73c-0.07,2.98-0.12,5.52-0.17,8.05c-5.21,0-10.42,0-15.79,0c0-11.97,0-23.74,0-35.89
		c2.5,0,4.97,0,7.66,0.26c0.23,7.92,0.19,15.57,0.23,23.22c0.03,5.16,0.1,4.54,0.1,4.54S75.16,87.44,81.02,87.73z"/>
	<path class="st44" d="M116.93,62.84c5.69,2.67,7.92,7.42,8,13.42c0.06,3.94,0.28,7.88-1.97,11.48c-2.3,3.68-5.64,5.79-9.63,7.12
		c-5.91,1.98-12,0.6-18.1,0.85c1.12-0.55,2.39-0.87,3.59-1.36c4.08-1.68,7.21-4.42,9.28-8.54c1.84-1.36,4.02-2.3,5.13-3.96
		c3.53-5.26,5.03-11.04,2.94-17.37C116.04,64.06,116.66,63.39,116.93,62.84z"/>
	<path class="st17" d="M120.88,137.63c0.37,4.52,1.16,8.87,0.93,13.17c-0.32,6.05-2.9,11.15-8.54,14.22
		c-0.35,0.19-0.65,0.48-1.16,0.74c3.98-9.09,2.26-21.01-5.33-26.25c-2.86-1.97-6.44-2.91-9.8-4.46c4.79-0.17,9.71-0.52,14.57-0.11
		C114.7,135.2,117.75,136.57,120.88,137.63z"/>
	<path class="st45" d="M79.74,134.8c0.23,10.42,0.17,20.8,0.25,31.18c0.02,2.07-0.35,2.98-2.69,2.87c-5.09-0.24-4.33,0.59-4.35-4.39
		c-0.04-9.72-0.01-19.43-0.01-29.38C75.12,134.81,77.32,134.79,79.74,134.8z"/>
	<path class="st17" d="M116.89,62.65c-0.23,0.74-0.86,1.41-0.72,1.82c2.09,6.33,0.59,12.11-2.94,17.37
		c-1.11,1.66-3.29,2.6-5.17,3.85c-0.18-0.02-0.29-0.22-0.29-0.22c0.38-2.52,1.03-5.04,1.09-7.57c0.23-9.68-5.69-15.9-14.98-17.19
		c-0.73-0.1-1.44-0.38-2.3-0.67c5.24-0.13,10.66-0.45,16.02-0.06C110.73,60.22,113.77,61.61,116.89,62.65z"/>
	<path class="st24" d="M110.68,166.7c-0.1,3.1-2.48,4.66-4.7,5.95c-2.76,1.6-5.89,2.57-8.98,3.95c-5.31,0.14-10.5,0.14-15.92,0.1
		c-0.2-2.58-0.16-5.11-0.02-7.88c6.84-0.2,13.58,0.04,20.3-0.23C104.42,168.47,107.44,167.34,110.68,166.7z"/>
	<path class="st45" d="M79.72,59.92c0.23,8.44,0.18,16.84,0.27,25.24c0.02,1.96-0.37,2.83-2.57,2.74c-5.29-0.22-4.44,0.63-4.47-4.53
		c-0.05-7.65-0.01-15.31,0-23.19C75.13,59.94,77.31,59.91,79.72,59.92z"/>
	<path class="st24" d="M107.62,85.53c0.16-0.05,0.27,0.15,0.3,0.26c-1.89,4.14-5.02,6.88-9.1,8.56c-1.19,0.49-2.46,0.8-3.82,1.34
		c-4.64,0.15-9.15,0.15-13.9,0.12c-0.19-2.57-0.14-5.1-0.01-7.86c6.44-0.22,12.81-0.01,19.16-0.3
		C102.67,87.55,105.05,86.3,107.62,85.53z"/>
	<path class="st41" d="M618.63,137.81c5.36,2.6,8.05,7.11,9.02,12.8c0.37,2.16,1.05,4.37,0.89,6.51
		c-0.66,8.54-5.39,15.6-14.05,18.52c-6.27,2.11-12.93,1-19.53,0.99c0.26-0.34,0.62-0.64,1.01-0.68c5.26-0.54,9.04-3.56,12.33-7.35
		c0.64-0.74,0.88-1.83,1.31-2.76c0,0,0.07-0.08,0.27-0.08c0.39-0.33,0.57-0.66,0.75-0.98c0,0,0.01,0,0.2,0.01
		c0.83-0.28,1.55-0.46,2.11-0.87c5.42-4.03,6.6-10.09,7.67-16.19c0.08-0.47-0.03-0.99-0.13-1.47
		C619.87,143.45,619.25,140.63,618.63,137.81z"/>
	<path class="st28" d="M578.63,176.66c-4.9,0.03-9.81,0.07-14.71,0.09c-0.31,0-0.63-0.11-1.09-0.19c0-13.83,0-27.59,0-41.78
		c2.46,0,4.91,0,7.6,0.26c0.23,9.06,0.23,17.85,0.23,26.64c0,7.79,0,7.79,8.04,6.94c0,0,0.1-0.06,0.06,0.2
		C578.69,171.61,578.66,174.14,578.63,176.66z"/>
	<path class="st28" d="M578.65,95.79c-5.22,0-10.43,0-15.81,0c0-11.95,0-23.72,0-35.89c2.46,0,4.91,0,7.6,0.26
		c0.23,6.97,0.22,13.67,0.22,20.38c0,8,0,8,8.04,7.16c0,0,0.11-0.05,0.09,0.22C578.73,90.71,578.69,93.25,578.65,95.79z"/>
	<path class="st21" d="M618.59,137.63c0.65,3,1.27,5.82,1.87,8.64c0.1,0.48,0.22,1,0.13,1.47c-1.08,6.1-2.25,12.16-7.67,16.19
		c-0.55,0.41-1.28,0.59-2.11,0.86c0.2-2.44,0.71-4.86,0.97-7.3c0.8-7.48-1.4-13.97-7.55-18.41c-2.68-1.93-6.25-2.63-9.53-4.03
		c5-0.17,10.14-0.5,15.22-0.11C612.84,135.17,615.68,136.57,618.59,137.63z"/>
	<path class="st20" d="M578.72,168.41c-8.06,1.07-8.06,1.07-8.06-6.72c0-8.79,0-17.58,0-26.61c2.57-0.24,5.15-0.25,7.96-0.18
		C578.82,146.06,578.78,157.12,578.72,168.41z"/>
	<path class="st21" d="M614.6,62.65c-0.22,0.35-0.71,0.54-0.7,0.69c0.21,3.67,0.98,7.39,0.6,10.99c-0.48,4.52-2.83,8.3-7.09,10.56
		c-0.5,0.27-0.97,0.59-1.63,0.9c0.18-3.14,0.81-6.29,0.85-9.46c0.13-8.76-6.51-14.3-14.12-15.53c-0.89-0.14-1.77-0.37-2.78-0.71
		c5.32-0.17,10.79-0.49,16.2-0.11C608.85,60.2,611.69,61.6,614.6,62.65z"/>
	<path class="st22" d="M578.72,87.48c-8.06,1.07-8.07,1.07-8.06-6.94c0-6.7,0.01-13.41,0.01-20.34c2.57-0.24,5.14-0.25,7.94-0.19
		C578.81,69.15,578.78,78.2,578.72,87.48z"/>
	<path class="st32" d="M578.86,176.7c-0.2-2.57-0.18-5.09-0.05-7.85c6.83-0.21,13.59,0.12,20.3-0.3c3.42-0.21,6.76-1.76,10.32-2.71
		c-0.25,0.92-0.49,2.01-1.13,2.75c-3.29,3.78-7.08,6.81-12.33,7.35c-0.39,0.04-0.75,0.34-1.24,0.66
		C589.43,176.74,584.26,176.74,578.86,176.7z"/>
	<path class="st32" d="M578.88,95.82c-0.19-2.57-0.15-5.1-0.04-7.88c6.46-0.22,12.85-0.02,19.22-0.28c2.36-0.09,4.69-1.23,7.21-1.88
		c-0.91,4.04-3.97,6.25-7.44,7.96c-1.58,0.78-3.32,1.22-5.12,1.95C588.1,95.84,583.61,95.85,578.88,95.82z"/>
	<path class="st36" d="M111.65,165.79c-0.04,0.33-0.23,0.67-0.6,0.98C111.09,166.43,111.29,166.11,111.65,165.79z"/>
	<path class="st46" d="M610.48,164.83c-0.04,0.28-0.22,0.61-0.56,0.95C609.96,165.49,610.15,165.18,610.48,164.83z"/>
	<path class="st40" d="M562.76,134.81c0-2.13,0.08-6.46,0.08-6.46l42.1-0.03c8.21,0.92,14.87,9.74,14.27,9.49
		c-8.79-3.73-14.49-2.89-17.68-2.91C590.57,134.84,562.8,134.87,562.76,134.81z"/>
	<path class="st40" d="M562.76,60.81c0-2.13,0.08-6.46,0.08-6.46l42.1-0.03c5.91,2.99,9.9,8.37,9.27,8.18
		c-5.49-1.71-9.49-1.58-12.68-1.6C590.57,60.84,562.8,60.87,562.76,60.81z"/>
	<path class="st40" d="M65.05,60.55c0-2.13,0.08-6.46,0.08-6.46l42.1-0.03c8.21,0.92,12.39,10.21,11.79,9.95
		c-8.79-3.73-12.01-3.36-15.2-3.38C92.87,60.58,65.09,60.61,65.05,60.55z"/>
	<path class="st40" d="M65.11,134.99c0-2.13,0.08-6.46,0.08-6.46l42.1-0.03c8.21,0.92,12.39,10.21,11.79,9.95
		c-8.79-3.73-12.01-3.36-15.2-3.38C92.92,135.01,65.15,135.04,65.11,134.99z"/>
	<path class="st41" d="M613.96,62.28c7.4,1.68,9.49,10.86,8.9,18.04c-0.39,4.7-2,8.47-5.55,11.34c-2.95,2.39-6.44,3.94-10.25,4.14
		c-4.65,0.25-9.32,0.07-14.1-0.08c1.56-0.75,3.3-1.19,4.88-1.97c3.47-1.72,6.53-3.92,7.62-7.95c0,0,0.08-0.04,0.29-0.03
		c0.69-0.28,1.16-0.61,1.66-0.88c4.25-2.25,6.61-6.03,7.09-10.56C614.88,70.74,613.7,62.45,613.96,62.28z"/>
</g>
</svg>
